G75*
G70*
%OFA0B0*%
%FSLAX24Y24*%
%IPPOS*%
%LPD*%
%AMOC8*
5,1,8,0,0,1.08239X$1,22.5*
%
%ADD10C,0.0000*%
%ADD11C,0.0040*%
%ADD12C,0.0060*%
%ADD13C,0.0100*%
%ADD14C,0.0070*%
%ADD15R,0.1000X0.0200*%
%ADD16R,0.0300X0.0750*%
%ADD17C,0.0050*%
%ADD18C,0.0020*%
%ADD19R,0.0200X0.0150*%
D10*
X000180Y000180D02*
X000180Y013960D01*
X019865Y013960D01*
X019865Y000180D01*
X000180Y000180D01*
X001125Y001755D02*
X001127Y001805D01*
X001133Y001855D01*
X001143Y001904D01*
X001157Y001952D01*
X001174Y001999D01*
X001195Y002044D01*
X001220Y002088D01*
X001248Y002129D01*
X001280Y002168D01*
X001314Y002205D01*
X001351Y002239D01*
X001391Y002269D01*
X001433Y002296D01*
X001477Y002320D01*
X001523Y002341D01*
X001570Y002357D01*
X001618Y002370D01*
X001668Y002379D01*
X001717Y002384D01*
X001768Y002385D01*
X001818Y002382D01*
X001867Y002375D01*
X001916Y002364D01*
X001964Y002349D01*
X002010Y002331D01*
X002055Y002309D01*
X002098Y002283D01*
X002139Y002254D01*
X002178Y002222D01*
X002214Y002187D01*
X002246Y002149D01*
X002276Y002109D01*
X002303Y002066D01*
X002326Y002022D01*
X002345Y001976D01*
X002361Y001928D01*
X002373Y001879D01*
X002381Y001830D01*
X002385Y001780D01*
X002385Y001730D01*
X002381Y001680D01*
X002373Y001631D01*
X002361Y001582D01*
X002345Y001534D01*
X002326Y001488D01*
X002303Y001444D01*
X002276Y001401D01*
X002246Y001361D01*
X002214Y001323D01*
X002178Y001288D01*
X002139Y001256D01*
X002098Y001227D01*
X002055Y001201D01*
X002010Y001179D01*
X001964Y001161D01*
X001916Y001146D01*
X001867Y001135D01*
X001818Y001128D01*
X001768Y001125D01*
X001717Y001126D01*
X001668Y001131D01*
X001618Y001140D01*
X001570Y001153D01*
X001523Y001169D01*
X001477Y001190D01*
X001433Y001214D01*
X001391Y001241D01*
X001351Y001271D01*
X001314Y001305D01*
X001280Y001342D01*
X001248Y001381D01*
X001220Y001422D01*
X001195Y001466D01*
X001174Y001511D01*
X001157Y001558D01*
X001143Y001606D01*
X001133Y001655D01*
X001127Y001705D01*
X001125Y001755D01*
X017660Y012385D02*
X017662Y012435D01*
X017668Y012485D01*
X017678Y012534D01*
X017692Y012582D01*
X017709Y012629D01*
X017730Y012674D01*
X017755Y012718D01*
X017783Y012759D01*
X017815Y012798D01*
X017849Y012835D01*
X017886Y012869D01*
X017926Y012899D01*
X017968Y012926D01*
X018012Y012950D01*
X018058Y012971D01*
X018105Y012987D01*
X018153Y013000D01*
X018203Y013009D01*
X018252Y013014D01*
X018303Y013015D01*
X018353Y013012D01*
X018402Y013005D01*
X018451Y012994D01*
X018499Y012979D01*
X018545Y012961D01*
X018590Y012939D01*
X018633Y012913D01*
X018674Y012884D01*
X018713Y012852D01*
X018749Y012817D01*
X018781Y012779D01*
X018811Y012739D01*
X018838Y012696D01*
X018861Y012652D01*
X018880Y012606D01*
X018896Y012558D01*
X018908Y012509D01*
X018916Y012460D01*
X018920Y012410D01*
X018920Y012360D01*
X018916Y012310D01*
X018908Y012261D01*
X018896Y012212D01*
X018880Y012164D01*
X018861Y012118D01*
X018838Y012074D01*
X018811Y012031D01*
X018781Y011991D01*
X018749Y011953D01*
X018713Y011918D01*
X018674Y011886D01*
X018633Y011857D01*
X018590Y011831D01*
X018545Y011809D01*
X018499Y011791D01*
X018451Y011776D01*
X018402Y011765D01*
X018353Y011758D01*
X018303Y011755D01*
X018252Y011756D01*
X018203Y011761D01*
X018153Y011770D01*
X018105Y011783D01*
X018058Y011799D01*
X018012Y011820D01*
X017968Y011844D01*
X017926Y011871D01*
X017886Y011901D01*
X017849Y011935D01*
X017815Y011972D01*
X017783Y012011D01*
X017755Y012052D01*
X017730Y012096D01*
X017709Y012141D01*
X017692Y012188D01*
X017678Y012236D01*
X017668Y012285D01*
X017662Y012335D01*
X017660Y012385D01*
D11*
X005365Y011684D02*
X005365Y011377D01*
X005211Y011224D01*
X005058Y011377D01*
X005058Y011684D01*
X004904Y011684D02*
X004597Y011684D01*
X004597Y011454D01*
X004751Y011531D01*
X004828Y011531D01*
X004904Y011454D01*
X004904Y011300D01*
X004828Y011224D01*
X004674Y011224D01*
X004597Y011300D01*
X004290Y011300D02*
X004290Y011607D01*
X004137Y011454D02*
X004444Y011454D01*
X002829Y012798D02*
X002829Y013259D01*
X002676Y013259D02*
X002982Y013259D01*
X002522Y013259D02*
X002522Y012875D01*
X002445Y012798D01*
X002292Y012798D01*
X002215Y012875D01*
X002215Y013259D01*
X002062Y013182D02*
X002062Y013029D01*
X001985Y012952D01*
X001755Y012952D01*
X001755Y012798D02*
X001755Y013259D01*
X001985Y013259D01*
X002062Y013182D01*
X001601Y013259D02*
X001601Y012798D01*
X001294Y013259D01*
X001294Y012798D01*
X001141Y012798D02*
X000987Y012798D01*
X001064Y012798D02*
X001064Y013259D01*
X000987Y013259D02*
X001141Y013259D01*
X016993Y001341D02*
X017223Y001341D01*
X017299Y001265D01*
X017299Y001111D01*
X017223Y001035D01*
X016993Y001035D01*
X016993Y000881D02*
X016993Y001341D01*
X017453Y001265D02*
X017453Y000958D01*
X017530Y000881D01*
X017683Y000881D01*
X017760Y000958D01*
X017760Y001265D01*
X017683Y001341D01*
X017530Y001341D01*
X017453Y001265D01*
X017913Y001341D02*
X017913Y000881D01*
X018067Y001035D01*
X018220Y000881D01*
X018220Y001341D01*
X018374Y001341D02*
X018374Y000881D01*
X018681Y000881D01*
X018834Y000881D02*
X018834Y001341D01*
X019064Y001341D01*
X019141Y001265D01*
X019141Y001111D01*
X019064Y001035D01*
X018834Y001035D01*
X018988Y001035D02*
X019141Y000881D01*
X018681Y001341D02*
X018374Y001341D01*
X018374Y001111D02*
X018527Y001111D01*
D12*
X015656Y002580D02*
X015656Y004780D01*
X015406Y004380D02*
X015406Y001080D01*
X015404Y001050D01*
X015399Y001020D01*
X015390Y000991D01*
X015377Y000964D01*
X015362Y000938D01*
X015343Y000914D01*
X015322Y000893D01*
X015298Y000874D01*
X015272Y000859D01*
X015245Y000846D01*
X015216Y000837D01*
X015186Y000832D01*
X015156Y000830D01*
X013156Y000830D01*
X013126Y000832D01*
X013096Y000837D01*
X013067Y000846D01*
X013040Y000859D01*
X013014Y000874D01*
X012990Y000893D01*
X012969Y000914D01*
X012950Y000938D01*
X012935Y000964D01*
X012922Y000991D01*
X012913Y001020D01*
X012908Y001050D01*
X012906Y001080D01*
X012906Y001380D01*
X012656Y001880D02*
X012656Y004080D01*
X012658Y004110D01*
X012663Y004140D01*
X012672Y004169D01*
X012685Y004196D01*
X012700Y004222D01*
X012719Y004246D01*
X012740Y004267D01*
X012764Y004286D01*
X012790Y004301D01*
X012817Y004314D01*
X012846Y004323D01*
X012876Y004328D01*
X012906Y004330D01*
X012906Y005580D02*
X012906Y002280D01*
X011210Y002823D02*
X011210Y002973D01*
X011160Y003023D01*
X011160Y004423D01*
X011210Y004473D01*
X011210Y004623D01*
X011208Y004640D01*
X011204Y004657D01*
X011197Y004673D01*
X011187Y004687D01*
X011174Y004700D01*
X011160Y004710D01*
X011144Y004717D01*
X011127Y004721D01*
X011110Y004723D01*
X010510Y004723D01*
X010493Y004721D01*
X010476Y004717D01*
X010460Y004710D01*
X010446Y004700D01*
X010433Y004687D01*
X010423Y004673D01*
X010416Y004657D01*
X010412Y004640D01*
X010410Y004623D01*
X010410Y004473D01*
X010460Y004423D01*
X010460Y003023D01*
X010410Y002973D01*
X010410Y002823D01*
X010412Y002806D01*
X010416Y002789D01*
X010423Y002773D01*
X010433Y002759D01*
X010446Y002746D01*
X010460Y002736D01*
X010476Y002729D01*
X010493Y002725D01*
X010510Y002723D01*
X011110Y002723D01*
X011127Y002725D01*
X011144Y002729D01*
X011160Y002736D01*
X011174Y002746D01*
X011187Y002759D01*
X011197Y002773D01*
X011204Y002789D01*
X011208Y002806D01*
X011210Y002823D01*
X008417Y003345D02*
X008417Y001345D01*
X006117Y001345D01*
X006117Y003345D01*
X006867Y003345D01*
X006869Y003306D01*
X006875Y003267D01*
X006884Y003229D01*
X006897Y003192D01*
X006914Y003156D01*
X006934Y003123D01*
X006958Y003091D01*
X006984Y003062D01*
X007013Y003036D01*
X007045Y003012D01*
X007078Y002992D01*
X007114Y002975D01*
X007151Y002962D01*
X007189Y002953D01*
X007228Y002947D01*
X007267Y002945D01*
X007306Y002947D01*
X007345Y002953D01*
X007383Y002962D01*
X007420Y002975D01*
X007456Y002992D01*
X007489Y003012D01*
X007521Y003036D01*
X007550Y003062D01*
X007576Y003091D01*
X007600Y003123D01*
X007620Y003156D01*
X007637Y003192D01*
X007650Y003229D01*
X007659Y003267D01*
X007665Y003306D01*
X007667Y003345D01*
X008417Y003345D01*
X005186Y005445D02*
X005186Y005595D01*
X005136Y005645D01*
X005136Y007045D01*
X005186Y007095D01*
X005186Y007245D01*
X005184Y007262D01*
X005180Y007279D01*
X005173Y007295D01*
X005163Y007309D01*
X005150Y007322D01*
X005136Y007332D01*
X005120Y007339D01*
X005103Y007343D01*
X005086Y007345D01*
X004486Y007345D01*
X004469Y007343D01*
X004452Y007339D01*
X004436Y007332D01*
X004422Y007322D01*
X004409Y007309D01*
X004399Y007295D01*
X004392Y007279D01*
X004388Y007262D01*
X004386Y007245D01*
X004386Y007095D01*
X004436Y007045D01*
X004436Y005645D01*
X004386Y005595D01*
X004386Y005445D01*
X004388Y005428D01*
X004392Y005411D01*
X004399Y005395D01*
X004409Y005381D01*
X004422Y005368D01*
X004436Y005358D01*
X004452Y005351D01*
X004469Y005347D01*
X004486Y005345D01*
X005086Y005345D01*
X005103Y005347D01*
X005120Y005351D01*
X005136Y005358D01*
X005150Y005368D01*
X005163Y005381D01*
X005173Y005395D01*
X005180Y005411D01*
X005184Y005428D01*
X005186Y005445D01*
X007044Y006576D02*
X007044Y013076D01*
X015944Y013076D01*
X015944Y006576D01*
X007044Y006576D01*
X006491Y008415D02*
X005491Y008415D01*
X005491Y010015D01*
X006491Y010015D01*
X006491Y008415D01*
X006241Y008815D02*
X005991Y009215D01*
X005741Y009215D01*
X005991Y009215D02*
X005991Y009465D01*
X005991Y009215D02*
X006241Y009215D01*
X005991Y009215D02*
X005991Y008615D01*
X005741Y008815D02*
X005991Y009215D01*
X006241Y008815D02*
X005741Y008815D01*
X008894Y009826D02*
X009294Y009826D01*
X009544Y010076D02*
X009544Y009576D01*
X010544Y010076D01*
X010794Y009826D02*
X013394Y009826D01*
X013644Y010076D02*
X013644Y011296D01*
X013644Y009576D02*
X013644Y008346D01*
X013156Y005830D02*
X015156Y005830D01*
X015186Y005828D01*
X015216Y005823D01*
X015245Y005814D01*
X015272Y005801D01*
X015298Y005786D01*
X015322Y005767D01*
X015343Y005746D01*
X015362Y005722D01*
X015377Y005696D01*
X015390Y005669D01*
X015399Y005640D01*
X015404Y005610D01*
X015406Y005580D01*
X015406Y005280D01*
X013156Y005830D02*
X013126Y005828D01*
X013096Y005823D01*
X013067Y005814D01*
X013040Y005801D01*
X013014Y005786D01*
X012990Y005767D01*
X012969Y005746D01*
X012950Y005722D01*
X012935Y005696D01*
X012922Y005669D01*
X012913Y005640D01*
X012908Y005610D01*
X012906Y005580D01*
X010044Y007476D02*
X009794Y007476D01*
X010044Y007476D02*
X010044Y009576D01*
X010044Y010076D02*
X010044Y012176D01*
X009794Y012176D01*
X015656Y002580D02*
X015654Y002550D01*
X015649Y002520D01*
X015640Y002491D01*
X015627Y002464D01*
X015612Y002438D01*
X015593Y002414D01*
X015572Y002393D01*
X015548Y002374D01*
X015522Y002359D01*
X015495Y002346D01*
X015466Y002337D01*
X015436Y002332D01*
X015406Y002330D01*
D13*
X010544Y009576D02*
X010044Y009576D01*
X009544Y009576D01*
X009544Y010076D02*
X010044Y010076D01*
X010544Y010076D01*
X010544Y009576D01*
X013394Y009826D02*
X013644Y010076D01*
X013774Y010196D01*
D14*
X006573Y012122D02*
X005942Y012122D01*
X006258Y012228D02*
X006573Y012543D01*
X006573Y012767D02*
X006573Y013187D01*
X006573Y012977D02*
X005942Y012977D01*
X006153Y012767D01*
X005942Y012543D02*
X006363Y012122D01*
D15*
X005991Y009765D03*
D16*
X005991Y010390D03*
X005991Y008040D03*
D17*
X005308Y008874D02*
X004858Y008874D01*
X004858Y009099D01*
X004933Y009174D01*
X005233Y009174D01*
X005308Y009099D01*
X005308Y008874D01*
X005308Y009334D02*
X005308Y009634D01*
X005308Y009484D02*
X004858Y009484D01*
X005008Y009334D01*
X000967Y009629D02*
X000967Y008841D01*
X000771Y008645D01*
X000180Y008645D01*
X000180Y007857D01*
X000771Y007857D01*
X000967Y007660D01*
X000967Y006873D01*
X000771Y006676D01*
X000180Y006676D01*
X000180Y005889D01*
X000771Y005889D01*
X000967Y005692D01*
X000967Y004904D01*
X000771Y004708D01*
X000180Y004708D01*
X000180Y004078D01*
X003723Y004078D01*
X003723Y012424D01*
X000180Y012424D01*
X000180Y011794D01*
X000771Y011794D01*
X000967Y011597D01*
X000967Y010810D01*
X000771Y010613D01*
X000180Y010613D01*
X000180Y009826D01*
X000771Y009826D01*
X000967Y009629D01*
X000180Y009826D02*
X000180Y008645D01*
X000180Y007857D02*
X000180Y006676D01*
X000180Y005889D02*
X000180Y004708D01*
X005360Y005339D02*
X005360Y005565D01*
X005435Y005640D01*
X005585Y005640D01*
X005661Y005565D01*
X005661Y005339D01*
X005811Y005339D02*
X005360Y005339D01*
X005661Y005489D02*
X005811Y005640D01*
X005585Y005800D02*
X005585Y006100D01*
X005360Y006025D02*
X005585Y005800D01*
X005811Y006025D02*
X005360Y006025D01*
X006221Y004804D02*
X006379Y004804D01*
X006442Y004254D02*
X008091Y004254D01*
X008154Y004804D02*
X008312Y004804D01*
X008889Y004786D02*
X008889Y005236D01*
X009039Y005236D02*
X008738Y005236D01*
X009199Y005086D02*
X009349Y005236D01*
X009349Y004786D01*
X009199Y004786D02*
X009499Y004786D01*
X011345Y004513D02*
X011345Y004363D01*
X011420Y004288D01*
X011420Y004128D02*
X011570Y004128D01*
X011645Y004053D01*
X011645Y003828D01*
X011645Y003978D02*
X011795Y004128D01*
X011795Y004288D02*
X011495Y004588D01*
X011420Y004588D01*
X011345Y004513D01*
X011420Y004128D02*
X011345Y004053D01*
X011345Y003828D01*
X011795Y003828D01*
X011795Y004288D02*
X011795Y004588D01*
X012481Y002115D02*
X012481Y001815D01*
X012481Y001965D02*
X012031Y001965D01*
X012181Y001815D01*
X012106Y001655D02*
X012256Y001655D01*
X012331Y001580D01*
X012331Y001355D01*
X012331Y001505D02*
X012481Y001655D01*
X012481Y001355D02*
X012031Y001355D01*
X012031Y001580D01*
X012106Y001655D01*
X016322Y001715D02*
X019865Y001715D01*
X019865Y002345D01*
X019274Y002345D01*
X019078Y002542D01*
X019078Y003330D01*
X019274Y003526D01*
X019865Y003526D01*
X019865Y004314D01*
X019274Y004314D01*
X019078Y004511D01*
X019078Y005298D01*
X019274Y005495D01*
X019865Y005495D01*
X019865Y006282D01*
X019274Y006282D01*
X019078Y006479D01*
X019078Y007267D01*
X019274Y007463D01*
X019865Y007463D01*
X019865Y008251D01*
X019274Y008251D01*
X019078Y008448D01*
X019078Y009235D01*
X019274Y009432D01*
X019865Y009432D01*
X019865Y010062D01*
X016322Y010062D01*
X016322Y001715D01*
X019865Y002345D02*
X019865Y003526D01*
X019865Y004314D02*
X019865Y005495D01*
X019865Y006282D02*
X019865Y007463D01*
X019865Y008251D02*
X019865Y009432D01*
X007379Y004804D02*
X007154Y004804D01*
X006442Y004254D02*
X006407Y004302D01*
X006374Y004352D01*
X006343Y004404D01*
X006316Y004458D01*
X006292Y004513D01*
X006272Y004570D01*
X006254Y004627D01*
X006240Y004685D01*
X006229Y004744D01*
X006222Y004804D01*
X006218Y004866D01*
X006217Y004929D01*
X006221Y004991D01*
X006228Y005053D01*
X006238Y005114D01*
X006253Y005175D01*
X006271Y005235D01*
X006292Y005294D01*
X006317Y005351D01*
X006345Y005406D01*
X006376Y005460D01*
X006411Y005512D01*
X006449Y005562D01*
X006489Y005609D01*
X006533Y005654D01*
X006578Y005697D01*
X006627Y005736D01*
X006677Y005773D01*
X006730Y005806D01*
X006784Y005837D01*
X006841Y005864D01*
X006898Y005887D01*
X006957Y005907D01*
X007577Y005907D02*
X007637Y005887D01*
X007696Y005863D01*
X007753Y005835D01*
X007808Y005804D01*
X007862Y005769D01*
X007913Y005732D01*
X007962Y005691D01*
X008008Y005647D01*
X008052Y005601D01*
X008093Y005552D01*
X008131Y005501D01*
X008165Y005448D01*
X008197Y005392D01*
X008224Y005335D01*
X008249Y005276D01*
X008269Y005216D01*
X008287Y005155D01*
X008300Y005093D01*
X008309Y005030D01*
X008315Y004967D01*
X008317Y004903D01*
X008315Y004839D01*
X008309Y004776D01*
X008300Y004713D01*
X008286Y004651D01*
X008269Y004590D01*
X008248Y004530D01*
X008224Y004471D01*
X008196Y004414D01*
X008164Y004358D01*
X008129Y004305D01*
X008092Y004254D01*
X000180Y010613D02*
X000180Y011794D01*
D18*
X013106Y005330D02*
X013106Y003330D01*
X013256Y003330D02*
X013256Y004330D01*
X015056Y003330D02*
X015056Y002330D01*
X015206Y001330D02*
X015206Y003330D01*
D19*
X010810Y002648D03*
X010810Y004798D03*
X004786Y005270D03*
X004786Y007420D03*
M02*
