G75*
G70*
%OFA0B0*%
%FSLAX24Y24*%
%IPPOS*%
%LPD*%
%AMOC8*
5,1,8,0,0,1.08239X$1,22.5*
%
%ADD10C,0.0000*%
%ADD11C,0.0780*%
%ADD12C,0.0660*%
%ADD13C,0.0594*%
%ADD14OC8,0.0768*%
%ADD15C,0.0520*%
%ADD16OC8,0.0520*%
%ADD17C,0.1000*%
%ADD18C,0.0240*%
%ADD19C,0.0160*%
D10*
X000180Y000180D02*
X000180Y013960D01*
X019865Y013960D01*
X019865Y000180D01*
X000180Y000180D01*
X001125Y001755D02*
X001127Y001805D01*
X001133Y001855D01*
X001143Y001904D01*
X001157Y001952D01*
X001174Y001999D01*
X001195Y002044D01*
X001220Y002088D01*
X001248Y002129D01*
X001280Y002168D01*
X001314Y002205D01*
X001351Y002239D01*
X001391Y002269D01*
X001433Y002296D01*
X001477Y002320D01*
X001523Y002341D01*
X001570Y002357D01*
X001618Y002370D01*
X001668Y002379D01*
X001717Y002384D01*
X001768Y002385D01*
X001818Y002382D01*
X001867Y002375D01*
X001916Y002364D01*
X001964Y002349D01*
X002010Y002331D01*
X002055Y002309D01*
X002098Y002283D01*
X002139Y002254D01*
X002178Y002222D01*
X002214Y002187D01*
X002246Y002149D01*
X002276Y002109D01*
X002303Y002066D01*
X002326Y002022D01*
X002345Y001976D01*
X002361Y001928D01*
X002373Y001879D01*
X002381Y001830D01*
X002385Y001780D01*
X002385Y001730D01*
X002381Y001680D01*
X002373Y001631D01*
X002361Y001582D01*
X002345Y001534D01*
X002326Y001488D01*
X002303Y001444D01*
X002276Y001401D01*
X002246Y001361D01*
X002214Y001323D01*
X002178Y001288D01*
X002139Y001256D01*
X002098Y001227D01*
X002055Y001201D01*
X002010Y001179D01*
X001964Y001161D01*
X001916Y001146D01*
X001867Y001135D01*
X001818Y001128D01*
X001768Y001125D01*
X001717Y001126D01*
X001668Y001131D01*
X001618Y001140D01*
X001570Y001153D01*
X001523Y001169D01*
X001477Y001190D01*
X001433Y001214D01*
X001391Y001241D01*
X001351Y001271D01*
X001314Y001305D01*
X001280Y001342D01*
X001248Y001381D01*
X001220Y001422D01*
X001195Y001466D01*
X001174Y001511D01*
X001157Y001558D01*
X001143Y001606D01*
X001133Y001655D01*
X001127Y001705D01*
X001125Y001755D01*
X017660Y012385D02*
X017662Y012435D01*
X017668Y012485D01*
X017678Y012534D01*
X017692Y012582D01*
X017709Y012629D01*
X017730Y012674D01*
X017755Y012718D01*
X017783Y012759D01*
X017815Y012798D01*
X017849Y012835D01*
X017886Y012869D01*
X017926Y012899D01*
X017968Y012926D01*
X018012Y012950D01*
X018058Y012971D01*
X018105Y012987D01*
X018153Y013000D01*
X018203Y013009D01*
X018252Y013014D01*
X018303Y013015D01*
X018353Y013012D01*
X018402Y013005D01*
X018451Y012994D01*
X018499Y012979D01*
X018545Y012961D01*
X018590Y012939D01*
X018633Y012913D01*
X018674Y012884D01*
X018713Y012852D01*
X018749Y012817D01*
X018781Y012779D01*
X018811Y012739D01*
X018838Y012696D01*
X018861Y012652D01*
X018880Y012606D01*
X018896Y012558D01*
X018908Y012509D01*
X018916Y012460D01*
X018920Y012410D01*
X018920Y012360D01*
X018916Y012310D01*
X018908Y012261D01*
X018896Y012212D01*
X018880Y012164D01*
X018861Y012118D01*
X018838Y012074D01*
X018811Y012031D01*
X018781Y011991D01*
X018749Y011953D01*
X018713Y011918D01*
X018674Y011886D01*
X018633Y011857D01*
X018590Y011831D01*
X018545Y011809D01*
X018499Y011791D01*
X018451Y011776D01*
X018402Y011765D01*
X018353Y011758D01*
X018303Y011755D01*
X018252Y011756D01*
X018203Y011761D01*
X018153Y011770D01*
X018105Y011783D01*
X018058Y011799D01*
X018012Y011820D01*
X017968Y011844D01*
X017926Y011871D01*
X017886Y011901D01*
X017849Y011935D01*
X017815Y011972D01*
X017783Y012011D01*
X017755Y012052D01*
X017730Y012096D01*
X017709Y012141D01*
X017692Y012188D01*
X017678Y012236D01*
X017668Y012285D01*
X017662Y012335D01*
X017660Y012385D01*
D11*
X014034Y012176D02*
X013254Y012176D01*
X009234Y012176D02*
X008454Y012176D01*
X008434Y009826D02*
X007654Y009826D01*
X008454Y007476D02*
X009234Y007476D01*
X013254Y007476D02*
X014034Y007476D01*
D12*
X005991Y007215D03*
X005991Y011215D03*
D13*
X014608Y004806D02*
X015201Y004806D01*
X013705Y001853D02*
X013111Y001853D01*
D14*
X018290Y002936D03*
X018290Y004904D03*
X018290Y006873D03*
X018290Y008841D03*
X001755Y009235D03*
X001755Y007267D03*
X001755Y005298D03*
X001755Y011204D03*
D15*
X005247Y002845D02*
X005767Y002845D01*
X005767Y001845D02*
X005247Y001845D01*
X008767Y001845D02*
X009287Y001845D01*
X009287Y002845D02*
X008767Y002845D01*
D16*
X010810Y002223D03*
X007767Y004904D03*
X007267Y005654D03*
X006767Y004904D03*
X004786Y004845D03*
X004786Y007845D03*
X010810Y005223D03*
D17*
X013644Y007476D02*
X014247Y006873D01*
X014904Y006215D01*
X014904Y004806D01*
X014247Y006873D02*
X018290Y006873D01*
X018290Y008841D02*
X016978Y008841D01*
X013644Y012176D01*
X008044Y009826D02*
X007454Y009235D01*
X001755Y009235D01*
X013408Y001853D02*
X017208Y001853D01*
X018290Y002936D01*
X018290Y004904D01*
D18*
X008844Y007476D02*
X008584Y007215D01*
X005991Y007215D01*
X005979Y011204D02*
X001755Y011204D01*
X005979Y011204D02*
X005991Y011215D01*
X007884Y011215D01*
X008844Y012176D01*
D19*
X008347Y012716D02*
X008148Y012633D01*
X007996Y012482D01*
X007914Y012283D01*
X007914Y012068D01*
X007996Y011870D01*
X008076Y011790D01*
X007772Y011485D01*
X006399Y011485D01*
X006398Y011487D01*
X006263Y011622D01*
X006087Y011695D01*
X005896Y011695D01*
X005719Y011622D01*
X005584Y011487D01*
X005578Y011474D01*
X002240Y011474D01*
X001976Y011737D01*
X001534Y011737D01*
X001221Y011425D01*
X001221Y010982D01*
X001534Y010670D01*
X001976Y010670D01*
X002240Y010934D01*
X005594Y010934D01*
X005719Y010809D01*
X005896Y010735D01*
X006087Y010735D01*
X006263Y010809D01*
X006398Y010944D01*
X006399Y010945D01*
X007938Y010945D01*
X008037Y010987D01*
X008113Y011062D01*
X008686Y011636D01*
X009342Y011636D01*
X009540Y011718D01*
X009692Y011870D01*
X009774Y012068D01*
X009774Y012283D01*
X009692Y012482D01*
X009540Y012633D01*
X009342Y012716D01*
X008347Y012716D01*
X008313Y012702D02*
X000460Y012702D01*
X000460Y012860D02*
X017502Y012860D01*
X017519Y012900D02*
X017380Y012566D01*
X017380Y012204D01*
X017519Y011869D01*
X017775Y011613D01*
X018109Y011475D01*
X018471Y011475D01*
X018806Y011613D01*
X019062Y011869D01*
X019200Y012204D01*
X019200Y012566D01*
X019062Y012900D01*
X018806Y013156D01*
X018471Y013295D01*
X018109Y013295D01*
X017775Y013156D01*
X017519Y012900D01*
X017637Y013019D02*
X000460Y013019D01*
X000460Y013177D02*
X017825Y013177D01*
X017437Y012702D02*
X014176Y012702D01*
X014142Y012716D02*
X014023Y012716D01*
X014012Y012727D01*
X013773Y012826D01*
X013515Y012826D01*
X013276Y012727D01*
X013265Y012716D01*
X013147Y012716D01*
X012948Y012633D01*
X012796Y012482D01*
X012714Y012283D01*
X012714Y012068D01*
X012796Y011870D01*
X012948Y011718D01*
X013147Y011636D01*
X013265Y011636D01*
X016610Y008290D01*
X016849Y008191D01*
X017108Y008191D01*
X018420Y008191D01*
X018658Y008290D01*
X018841Y008473D01*
X018940Y008712D01*
X018940Y008971D01*
X018841Y009210D01*
X018658Y009392D01*
X018420Y009491D01*
X017248Y009491D01*
X014574Y012165D01*
X014574Y012283D01*
X014492Y012482D01*
X014340Y012633D01*
X014142Y012716D01*
X014430Y012543D02*
X017380Y012543D01*
X017380Y012385D02*
X014532Y012385D01*
X014574Y012226D02*
X017380Y012226D01*
X017437Y012068D02*
X014672Y012068D01*
X014830Y011909D02*
X017502Y011909D01*
X017638Y011751D02*
X014989Y011751D01*
X015147Y011592D02*
X017826Y011592D01*
X018754Y011592D02*
X019585Y011592D01*
X019585Y011434D02*
X015306Y011434D01*
X015464Y011275D02*
X019585Y011275D01*
X019585Y011117D02*
X015623Y011117D01*
X015781Y010958D02*
X019585Y010958D01*
X019585Y010800D02*
X015940Y010800D01*
X016098Y010641D02*
X019585Y010641D01*
X019585Y010483D02*
X016257Y010483D01*
X016415Y010324D02*
X019585Y010324D01*
X019585Y010166D02*
X016574Y010166D01*
X016732Y010007D02*
X019585Y010007D01*
X019585Y009849D02*
X016891Y009849D01*
X017049Y009690D02*
X019585Y009690D01*
X019585Y009532D02*
X017208Y009532D01*
X016162Y008739D02*
X007877Y008739D01*
X007822Y008684D02*
X008423Y009286D01*
X008542Y009286D01*
X008740Y009368D01*
X008892Y009520D01*
X008974Y009718D01*
X008974Y009933D01*
X008892Y010132D01*
X008740Y010283D01*
X008542Y010366D01*
X008423Y010366D01*
X008412Y010377D01*
X008173Y010476D01*
X007915Y010476D01*
X007676Y010377D01*
X007665Y010366D01*
X007547Y010366D01*
X007348Y010283D01*
X007196Y010132D01*
X007114Y009933D01*
X007114Y009885D01*
X001626Y009885D01*
X001387Y009786D01*
X001204Y009603D01*
X001105Y009364D01*
X001105Y009106D01*
X001204Y008867D01*
X001387Y008684D01*
X001626Y008585D01*
X007583Y008585D01*
X007822Y008684D01*
X008035Y008898D02*
X016003Y008898D01*
X015845Y009056D02*
X008194Y009056D01*
X008352Y009215D02*
X015686Y009215D01*
X015528Y009373D02*
X008745Y009373D01*
X008897Y009532D02*
X015369Y009532D01*
X015211Y009690D02*
X008962Y009690D01*
X008974Y009849D02*
X015052Y009849D01*
X014894Y010007D02*
X008944Y010007D01*
X008858Y010166D02*
X014735Y010166D01*
X014577Y010324D02*
X008642Y010324D01*
X007968Y010958D02*
X013943Y010958D01*
X014101Y010800D02*
X006241Y010800D01*
X005741Y010800D02*
X002106Y010800D01*
X001404Y010800D02*
X000460Y010800D01*
X000460Y010958D02*
X001245Y010958D01*
X001221Y011117D02*
X000460Y011117D01*
X000460Y011275D02*
X001221Y011275D01*
X001230Y011434D02*
X000460Y011434D01*
X000460Y011592D02*
X001388Y011592D01*
X002121Y011592D02*
X005689Y011592D01*
X006293Y011592D02*
X007879Y011592D01*
X008037Y011751D02*
X000460Y011751D01*
X000460Y011909D02*
X007980Y011909D01*
X007914Y012068D02*
X000460Y012068D01*
X000460Y012226D02*
X007914Y012226D01*
X007956Y012385D02*
X000460Y012385D01*
X000460Y012543D02*
X008058Y012543D01*
X009376Y012702D02*
X013113Y012702D01*
X012858Y012543D02*
X009630Y012543D01*
X009732Y012385D02*
X012756Y012385D01*
X012714Y012226D02*
X009774Y012226D01*
X009774Y012068D02*
X012714Y012068D01*
X012780Y011909D02*
X009708Y011909D01*
X009573Y011751D02*
X012916Y011751D01*
X013309Y011592D02*
X008642Y011592D01*
X008484Y011434D02*
X013467Y011434D01*
X013626Y011275D02*
X008325Y011275D01*
X008167Y011117D02*
X013784Y011117D01*
X014260Y010641D02*
X000460Y010641D01*
X000460Y010483D02*
X014418Y010483D01*
X016320Y008581D02*
X000460Y008581D01*
X000460Y008739D02*
X001332Y008739D01*
X001191Y008898D02*
X000460Y008898D01*
X000460Y009056D02*
X001125Y009056D01*
X001105Y009215D02*
X000460Y009215D01*
X000460Y009373D02*
X001108Y009373D01*
X001174Y009532D02*
X000460Y009532D01*
X000460Y009690D02*
X001290Y009690D01*
X001537Y009849D02*
X000460Y009849D01*
X000460Y010007D02*
X007145Y010007D01*
X007230Y010166D02*
X000460Y010166D01*
X000460Y010324D02*
X007446Y010324D01*
X005196Y008015D02*
X004956Y008255D01*
X004616Y008255D01*
X004376Y008015D01*
X004376Y007761D01*
X004112Y007497D01*
X002280Y007497D01*
X001976Y007800D01*
X001534Y007800D01*
X001221Y007488D01*
X001221Y007045D01*
X001534Y006733D01*
X001976Y006733D01*
X002280Y007037D01*
X004303Y007037D01*
X004702Y007435D01*
X004956Y007435D01*
X005196Y007676D01*
X005196Y008015D01*
X005196Y007947D02*
X008180Y007947D01*
X008148Y007933D02*
X007996Y007782D01*
X007914Y007583D01*
X007914Y007485D01*
X006399Y007485D01*
X006398Y007487D01*
X006263Y007622D01*
X006087Y007695D01*
X005896Y007695D01*
X005719Y007622D01*
X005584Y007487D01*
X005511Y007311D01*
X005511Y007120D01*
X005584Y006944D01*
X005719Y006809D01*
X005896Y006735D01*
X006087Y006735D01*
X006263Y006809D01*
X006398Y006944D01*
X006399Y006945D01*
X008323Y006945D01*
X008347Y006936D01*
X009342Y006936D01*
X009540Y007018D01*
X009692Y007170D01*
X009774Y007368D01*
X009774Y007583D01*
X009692Y007782D01*
X009540Y007933D01*
X009342Y008016D01*
X008347Y008016D01*
X008148Y007933D01*
X008003Y007788D02*
X005196Y007788D01*
X005150Y007630D02*
X005736Y007630D01*
X005577Y007471D02*
X004992Y007471D01*
X004579Y007313D02*
X005512Y007313D01*
X005511Y007154D02*
X004420Y007154D01*
X004208Y007267D02*
X004786Y007845D01*
X004466Y008105D02*
X000460Y008105D01*
X000460Y007947D02*
X004376Y007947D01*
X004376Y007788D02*
X001988Y007788D01*
X002147Y007630D02*
X004245Y007630D01*
X004208Y007267D02*
X001755Y007267D01*
X001363Y007630D02*
X000460Y007630D01*
X000460Y007471D02*
X001221Y007471D01*
X001221Y007313D02*
X000460Y007313D01*
X000460Y007154D02*
X001221Y007154D01*
X001271Y006996D02*
X000460Y006996D01*
X000460Y006837D02*
X001429Y006837D01*
X002080Y006837D02*
X005691Y006837D01*
X005563Y006996D02*
X002239Y006996D01*
X001521Y007788D02*
X000460Y007788D01*
X000460Y008264D02*
X016675Y008264D01*
X016479Y008422D02*
X000460Y008422D01*
X000460Y006679D02*
X013522Y006679D01*
X013364Y006837D02*
X006291Y006837D01*
X006246Y007630D02*
X007933Y007630D01*
X009509Y007947D02*
X012980Y007947D01*
X012948Y007933D02*
X012796Y007782D01*
X012714Y007583D01*
X012714Y007368D01*
X012796Y007170D01*
X012948Y007018D01*
X013147Y006936D01*
X013265Y006936D01*
X013696Y006505D01*
X014254Y005946D01*
X014254Y005085D01*
X014229Y005059D01*
X014161Y004895D01*
X014161Y004717D01*
X014229Y004553D01*
X014354Y004427D01*
X014371Y004420D01*
X014536Y004255D01*
X014775Y004156D01*
X015034Y004156D01*
X015273Y004255D01*
X015438Y004420D01*
X015454Y004427D01*
X015580Y004553D01*
X015648Y004717D01*
X015648Y004895D01*
X015580Y005059D01*
X015554Y005085D01*
X015554Y006223D01*
X018420Y006223D01*
X018658Y006322D01*
X018841Y006505D01*
X018940Y006744D01*
X018940Y007002D01*
X018841Y007241D01*
X018658Y007424D01*
X018420Y007523D01*
X014574Y007523D01*
X014574Y007583D01*
X014492Y007782D01*
X014340Y007933D01*
X014142Y008016D01*
X014023Y008016D01*
X014012Y008027D01*
X013773Y008126D01*
X013515Y008126D01*
X013276Y008027D01*
X013265Y008016D01*
X013147Y008016D01*
X012948Y007933D01*
X012803Y007788D02*
X009686Y007788D01*
X009755Y007630D02*
X012733Y007630D01*
X012714Y007471D02*
X009774Y007471D01*
X009751Y007313D02*
X012737Y007313D01*
X012812Y007154D02*
X009676Y007154D01*
X009486Y006996D02*
X013002Y006996D01*
X013681Y006520D02*
X000460Y006520D01*
X000460Y006362D02*
X013839Y006362D01*
X013998Y006203D02*
X000460Y006203D01*
X000460Y006045D02*
X007077Y006045D01*
X007097Y006064D02*
X006857Y005824D01*
X006857Y005485D01*
X007097Y005244D01*
X007436Y005244D01*
X007616Y005424D01*
X010284Y005424D01*
X010400Y005308D01*
X010400Y005053D01*
X010640Y004813D01*
X010980Y004813D01*
X011220Y005053D01*
X011220Y005393D01*
X010980Y005633D01*
X010725Y005633D01*
X010609Y005750D01*
X010474Y005884D01*
X007616Y005884D01*
X007436Y006064D01*
X007097Y006064D01*
X006918Y005886D02*
X000460Y005886D01*
X000460Y005728D02*
X001387Y005728D01*
X001521Y005862D02*
X001191Y005532D01*
X001191Y005346D01*
X001707Y005346D01*
X001707Y005862D01*
X001521Y005862D01*
X001707Y005728D02*
X001803Y005728D01*
X001803Y005862D02*
X001803Y005346D01*
X002319Y005346D01*
X002319Y005532D01*
X001988Y005862D01*
X001803Y005862D01*
X001803Y005569D02*
X001707Y005569D01*
X001707Y005411D02*
X001803Y005411D01*
X001803Y005346D02*
X001707Y005346D01*
X001707Y005250D01*
X001803Y005250D01*
X001803Y005346D01*
X001803Y005252D02*
X004613Y005252D01*
X004616Y005255D02*
X004376Y005015D01*
X004376Y004676D01*
X004616Y004435D01*
X004871Y004435D01*
X005537Y003770D01*
X005537Y003255D01*
X005165Y003255D01*
X005014Y003193D01*
X004899Y003078D01*
X004837Y002927D01*
X004837Y002764D01*
X004899Y002613D01*
X005014Y002498D01*
X005165Y002435D01*
X005848Y002435D01*
X005999Y002498D01*
X006114Y002613D01*
X006177Y002764D01*
X006177Y002927D01*
X006114Y003078D01*
X005999Y003193D01*
X005997Y003194D01*
X005997Y003960D01*
X005862Y004095D01*
X005196Y004761D01*
X005196Y005015D01*
X004956Y005255D01*
X004616Y005255D01*
X004455Y005094D02*
X002319Y005094D01*
X002319Y005065D02*
X002319Y005250D01*
X001803Y005250D01*
X001803Y004734D01*
X001988Y004734D01*
X002319Y005065D01*
X002189Y004935D02*
X004376Y004935D01*
X004376Y004777D02*
X002031Y004777D01*
X001803Y004777D02*
X001707Y004777D01*
X001707Y004734D02*
X001707Y005250D01*
X001191Y005250D01*
X001191Y005065D01*
X001521Y004734D01*
X001707Y004734D01*
X001707Y004935D02*
X001803Y004935D01*
X001479Y004777D02*
X000460Y004777D01*
X000460Y004935D02*
X001320Y004935D01*
X001191Y005094D02*
X000460Y005094D01*
X000460Y005252D02*
X001707Y005252D01*
X001707Y005094D02*
X001803Y005094D01*
X002319Y005411D02*
X006931Y005411D01*
X006949Y005344D02*
X006767Y005344D01*
X006767Y004904D01*
X006767Y004904D01*
X007207Y004904D01*
X007207Y004722D01*
X006949Y004464D01*
X006767Y004464D01*
X006767Y004904D01*
X006767Y004904D01*
X007207Y004904D01*
X007207Y005087D01*
X006949Y005344D01*
X007041Y005252D02*
X007089Y005252D01*
X007200Y005094D02*
X007376Y005094D01*
X007357Y005074D02*
X007357Y004735D01*
X007597Y004494D01*
X007936Y004494D01*
X008177Y004735D01*
X008177Y005074D01*
X007936Y005314D01*
X007597Y005314D01*
X007357Y005074D01*
X007357Y004935D02*
X007207Y004935D01*
X007207Y004777D02*
X007357Y004777D01*
X007473Y004618D02*
X007102Y004618D01*
X006767Y004618D02*
X006767Y004618D01*
X006767Y004464D02*
X006584Y004464D01*
X006327Y004722D01*
X006327Y004904D01*
X006767Y004904D01*
X006767Y004464D01*
X006431Y004618D02*
X005339Y004618D01*
X005196Y004777D02*
X006327Y004777D01*
X006327Y004904D02*
X006767Y004904D01*
X006767Y004904D01*
X006767Y004904D01*
X006767Y005344D01*
X006584Y005344D01*
X006327Y005087D01*
X006327Y004904D01*
X006327Y004935D02*
X005196Y004935D01*
X005118Y005094D02*
X006333Y005094D01*
X006492Y005252D02*
X004959Y005252D01*
X004786Y004845D02*
X005767Y003865D01*
X005767Y002845D01*
X006059Y002558D02*
X008475Y002558D01*
X008419Y002613D02*
X008534Y002498D01*
X008685Y002435D01*
X009368Y002435D01*
X009519Y002498D01*
X009634Y002613D01*
X009697Y002764D01*
X009697Y002927D01*
X009634Y003078D01*
X009519Y003193D01*
X009368Y003255D01*
X008685Y003255D01*
X008534Y003193D01*
X008419Y003078D01*
X008357Y002927D01*
X008357Y002764D01*
X008419Y002613D01*
X008376Y002716D02*
X006157Y002716D01*
X006177Y002875D02*
X008357Y002875D01*
X008401Y003033D02*
X006133Y003033D01*
X006000Y003192D02*
X008533Y003192D01*
X009520Y003192D02*
X017627Y003192D01*
X017640Y003205D02*
X016938Y002503D01*
X013279Y002503D01*
X013040Y002404D01*
X012875Y002239D01*
X012858Y002232D01*
X012733Y002106D01*
X012665Y001942D01*
X012665Y001764D01*
X012733Y001600D01*
X012858Y001474D01*
X012875Y001468D01*
X013040Y001302D01*
X013279Y001203D01*
X017337Y001203D01*
X017576Y001302D01*
X018658Y002385D01*
X018841Y002568D01*
X018940Y002807D01*
X018940Y005034D01*
X018841Y005273D01*
X018658Y005455D01*
X018420Y005554D01*
X018161Y005554D01*
X017922Y005455D01*
X017739Y005273D01*
X017640Y005034D01*
X017640Y003205D01*
X017640Y003350D02*
X005997Y003350D01*
X005997Y003509D02*
X017640Y003509D01*
X017640Y003667D02*
X005997Y003667D01*
X005997Y003826D02*
X017640Y003826D01*
X017640Y003984D02*
X005973Y003984D01*
X005814Y004143D02*
X017640Y004143D01*
X017640Y004301D02*
X015319Y004301D01*
X015487Y004460D02*
X017640Y004460D01*
X017640Y004618D02*
X015607Y004618D01*
X015648Y004777D02*
X017640Y004777D01*
X017640Y004935D02*
X015631Y004935D01*
X015554Y005094D02*
X017665Y005094D01*
X017731Y005252D02*
X015554Y005252D01*
X015554Y005411D02*
X017877Y005411D01*
X018703Y005411D02*
X019585Y005411D01*
X019585Y005569D02*
X015554Y005569D01*
X015554Y005728D02*
X019585Y005728D01*
X019585Y005886D02*
X015554Y005886D01*
X015554Y006045D02*
X019585Y006045D01*
X019585Y006203D02*
X015554Y006203D01*
X014254Y005886D02*
X007615Y005886D01*
X007456Y006045D02*
X014156Y006045D01*
X014254Y005728D02*
X010631Y005728D01*
X010379Y005654D02*
X007267Y005654D01*
X007603Y005411D02*
X010297Y005411D01*
X010400Y005252D02*
X007999Y005252D01*
X008157Y005094D02*
X010400Y005094D01*
X010518Y004935D02*
X008177Y004935D01*
X008177Y004777D02*
X014161Y004777D01*
X014177Y004935D02*
X011101Y004935D01*
X011220Y005094D02*
X014254Y005094D01*
X014254Y005252D02*
X011220Y005252D01*
X011203Y005411D02*
X014254Y005411D01*
X014254Y005569D02*
X011044Y005569D01*
X010810Y005223D02*
X010379Y005654D01*
X008060Y004618D02*
X014202Y004618D01*
X014322Y004460D02*
X005497Y004460D01*
X005656Y004301D02*
X014490Y004301D01*
X016993Y002558D02*
X011056Y002558D01*
X010980Y002633D02*
X010640Y002633D01*
X010400Y002393D01*
X010400Y002139D01*
X010337Y002075D01*
X009635Y002075D01*
X009634Y002078D01*
X009519Y002193D01*
X009368Y002255D01*
X008685Y002255D01*
X008534Y002193D01*
X008419Y002078D01*
X008357Y001927D01*
X008357Y001764D01*
X008419Y001613D01*
X008534Y001498D01*
X008685Y001435D01*
X009368Y001435D01*
X009519Y001498D01*
X009634Y001613D01*
X009635Y001615D01*
X010527Y001615D01*
X010725Y001813D01*
X010980Y001813D01*
X011220Y002053D01*
X011220Y002393D01*
X010980Y002633D01*
X011214Y002399D02*
X013035Y002399D01*
X012876Y002241D02*
X011220Y002241D01*
X011220Y002082D02*
X012723Y002082D01*
X012665Y001924D02*
X011090Y001924D01*
X010810Y002223D02*
X010432Y001845D01*
X008767Y001845D01*
X008423Y002082D02*
X006139Y002082D01*
X006143Y002076D02*
X006102Y002132D01*
X006053Y002181D01*
X005997Y002222D01*
X005936Y002253D01*
X005870Y002275D01*
X005801Y002285D01*
X005767Y002285D01*
X005767Y001845D01*
X005767Y001845D01*
X006207Y001845D01*
X006207Y001811D01*
X006196Y001742D01*
X006174Y001676D01*
X006143Y001615D01*
X006102Y001559D01*
X006053Y001510D01*
X005997Y001469D01*
X005936Y001438D01*
X005870Y001416D01*
X005801Y001405D01*
X005767Y001405D01*
X005767Y001845D01*
X005767Y001845D01*
X006207Y001845D01*
X006207Y001880D01*
X006196Y001948D01*
X006174Y002014D01*
X006143Y002076D01*
X006200Y001924D02*
X008357Y001924D01*
X008357Y001765D02*
X006199Y001765D01*
X006137Y001607D02*
X008426Y001607D01*
X008655Y001448D02*
X005956Y001448D01*
X005767Y001448D02*
X005767Y001448D01*
X005767Y001405D02*
X005767Y001845D01*
X005767Y001845D01*
X004807Y001845D01*
X004807Y001811D01*
X004817Y001742D01*
X004839Y001676D01*
X004870Y001615D01*
X004911Y001559D01*
X004960Y001510D01*
X005016Y001469D01*
X005078Y001438D01*
X005144Y001416D01*
X005212Y001405D01*
X005767Y001405D01*
X005767Y001607D02*
X005767Y001607D01*
X005767Y001765D02*
X005767Y001765D01*
X005767Y001845D02*
X005767Y001845D01*
X004807Y001845D01*
X004807Y001880D01*
X004817Y001948D01*
X004839Y002014D01*
X004870Y002076D01*
X004911Y002132D01*
X004960Y002181D01*
X005016Y002222D01*
X005078Y002253D01*
X005144Y002275D01*
X005212Y002285D01*
X005767Y002285D01*
X005767Y001845D01*
X005767Y001924D02*
X005767Y001924D01*
X005767Y002082D02*
X005767Y002082D01*
X005767Y002241D02*
X005767Y002241D01*
X005960Y002241D02*
X008649Y002241D01*
X009404Y002241D02*
X010400Y002241D01*
X010406Y002399D02*
X002397Y002399D01*
X002270Y002526D02*
X001936Y002665D01*
X001574Y002665D01*
X001239Y002526D01*
X000983Y002270D01*
X000845Y001936D01*
X000845Y001574D01*
X000983Y001239D01*
X001239Y000983D01*
X001574Y000845D01*
X001936Y000845D01*
X002270Y000983D01*
X002526Y001239D01*
X002665Y001574D01*
X002665Y001936D01*
X002526Y002270D01*
X002270Y002526D01*
X002195Y002558D02*
X004955Y002558D01*
X004856Y002716D02*
X000460Y002716D01*
X000460Y002558D02*
X001315Y002558D01*
X001112Y002399D02*
X000460Y002399D01*
X000460Y002241D02*
X000971Y002241D01*
X000905Y002082D02*
X000460Y002082D01*
X000460Y001924D02*
X000845Y001924D01*
X000845Y001765D02*
X000460Y001765D01*
X000460Y001607D02*
X000845Y001607D01*
X000897Y001448D02*
X000460Y001448D01*
X000460Y001290D02*
X000963Y001290D01*
X001092Y001131D02*
X000460Y001131D01*
X000460Y000973D02*
X001266Y000973D01*
X000460Y000814D02*
X019585Y000814D01*
X019585Y000656D02*
X000460Y000656D01*
X000460Y000497D02*
X019585Y000497D01*
X019585Y000460D02*
X000460Y000460D01*
X000460Y013680D01*
X019585Y013680D01*
X019585Y000460D01*
X019585Y000973D02*
X002244Y000973D01*
X002418Y001131D02*
X019585Y001131D01*
X019585Y001290D02*
X017545Y001290D01*
X017722Y001448D02*
X019585Y001448D01*
X019585Y001607D02*
X017880Y001607D01*
X018039Y001765D02*
X019585Y001765D01*
X019585Y001924D02*
X018197Y001924D01*
X018356Y002082D02*
X019585Y002082D01*
X019585Y002241D02*
X018514Y002241D01*
X018673Y002399D02*
X019585Y002399D01*
X019585Y002558D02*
X018831Y002558D01*
X018903Y002716D02*
X019585Y002716D01*
X019585Y002875D02*
X018940Y002875D01*
X018940Y003033D02*
X019585Y003033D01*
X019585Y003192D02*
X018940Y003192D01*
X018940Y003350D02*
X019585Y003350D01*
X019585Y003509D02*
X018940Y003509D01*
X018940Y003667D02*
X019585Y003667D01*
X019585Y003826D02*
X018940Y003826D01*
X018940Y003984D02*
X019585Y003984D01*
X019585Y004143D02*
X018940Y004143D01*
X018940Y004301D02*
X019585Y004301D01*
X019585Y004460D02*
X018940Y004460D01*
X018940Y004618D02*
X019585Y004618D01*
X019585Y004777D02*
X018940Y004777D01*
X018940Y004935D02*
X019585Y004935D01*
X019585Y005094D02*
X018915Y005094D01*
X018850Y005252D02*
X019585Y005252D01*
X019585Y006362D02*
X018698Y006362D01*
X018848Y006520D02*
X019585Y006520D01*
X019585Y006679D02*
X018913Y006679D01*
X018940Y006837D02*
X019585Y006837D01*
X019585Y006996D02*
X018940Y006996D01*
X018877Y007154D02*
X019585Y007154D01*
X019585Y007313D02*
X018770Y007313D01*
X018545Y007471D02*
X019585Y007471D01*
X019585Y007630D02*
X014555Y007630D01*
X014486Y007788D02*
X019585Y007788D01*
X019585Y007947D02*
X014309Y007947D01*
X013823Y008105D02*
X019585Y008105D01*
X019585Y008264D02*
X018594Y008264D01*
X018790Y008422D02*
X019585Y008422D01*
X019585Y008581D02*
X018886Y008581D01*
X018940Y008739D02*
X019585Y008739D01*
X019585Y008898D02*
X018940Y008898D01*
X018905Y009056D02*
X019585Y009056D01*
X019585Y009215D02*
X018836Y009215D01*
X018678Y009373D02*
X019585Y009373D01*
X019585Y011751D02*
X018943Y011751D01*
X019078Y011909D02*
X019585Y011909D01*
X019585Y012068D02*
X019144Y012068D01*
X019200Y012226D02*
X019585Y012226D01*
X019585Y012385D02*
X019200Y012385D01*
X019200Y012543D02*
X019585Y012543D01*
X019585Y012702D02*
X019144Y012702D01*
X019078Y012860D02*
X019585Y012860D01*
X019585Y013019D02*
X018943Y013019D01*
X018755Y013177D02*
X019585Y013177D01*
X019585Y013336D02*
X000460Y013336D01*
X000460Y013494D02*
X019585Y013494D01*
X019585Y013653D02*
X000460Y013653D01*
X005106Y008105D02*
X013465Y008105D01*
X007534Y005252D02*
X007444Y005252D01*
X006857Y005569D02*
X002281Y005569D01*
X002123Y005728D02*
X006857Y005728D01*
X006767Y005252D02*
X006767Y005252D01*
X006767Y005094D02*
X006767Y005094D01*
X006767Y004935D02*
X006767Y004935D01*
X006767Y004777D02*
X006767Y004777D01*
X005481Y003826D02*
X000460Y003826D01*
X000460Y003984D02*
X005322Y003984D01*
X005164Y004143D02*
X000460Y004143D01*
X000460Y004301D02*
X005005Y004301D01*
X004592Y004460D02*
X000460Y004460D01*
X000460Y004618D02*
X004434Y004618D01*
X005537Y003667D02*
X000460Y003667D01*
X000460Y003509D02*
X005537Y003509D01*
X005537Y003350D02*
X000460Y003350D01*
X000460Y003192D02*
X005013Y003192D01*
X004881Y003033D02*
X000460Y003033D01*
X000460Y002875D02*
X004837Y002875D01*
X005053Y002241D02*
X002539Y002241D01*
X002604Y002082D02*
X004875Y002082D01*
X004814Y001924D02*
X002665Y001924D01*
X002665Y001765D02*
X004814Y001765D01*
X004876Y001607D02*
X002665Y001607D01*
X002613Y001448D02*
X005057Y001448D01*
X002547Y001290D02*
X013071Y001290D01*
X012894Y001448D02*
X009399Y001448D01*
X009628Y001607D02*
X012730Y001607D01*
X012665Y001765D02*
X010677Y001765D01*
X010343Y002082D02*
X009630Y002082D01*
X009579Y002558D02*
X010564Y002558D01*
X009677Y002716D02*
X017151Y002716D01*
X017310Y002875D02*
X009697Y002875D01*
X009653Y003033D02*
X017468Y003033D01*
X001228Y005569D02*
X000460Y005569D01*
X000460Y005411D02*
X001191Y005411D01*
M02*
