G75*
G70*
%OFA0B0*%
%FSLAX24Y24*%
%IPPOS*%
%LPD*%
%AMOC8*
5,1,8,0,0,1.08239X$1,22.5*
%
%ADD10C,0.0000*%
%ADD11C,0.0780*%
%ADD12C,0.0660*%
%ADD13C,0.0594*%
%ADD14OC8,0.0768*%
%ADD15C,0.0520*%
%ADD16OC8,0.0520*%
%ADD17C,0.0240*%
%ADD18C,0.0160*%
D10*
X000180Y000180D02*
X000180Y013960D01*
X019865Y013960D01*
X019865Y000180D01*
X000180Y000180D01*
X001125Y001755D02*
X001127Y001805D01*
X001133Y001855D01*
X001143Y001904D01*
X001157Y001952D01*
X001174Y001999D01*
X001195Y002044D01*
X001220Y002088D01*
X001248Y002129D01*
X001280Y002168D01*
X001314Y002205D01*
X001351Y002239D01*
X001391Y002269D01*
X001433Y002296D01*
X001477Y002320D01*
X001523Y002341D01*
X001570Y002357D01*
X001618Y002370D01*
X001668Y002379D01*
X001717Y002384D01*
X001768Y002385D01*
X001818Y002382D01*
X001867Y002375D01*
X001916Y002364D01*
X001964Y002349D01*
X002010Y002331D01*
X002055Y002309D01*
X002098Y002283D01*
X002139Y002254D01*
X002178Y002222D01*
X002214Y002187D01*
X002246Y002149D01*
X002276Y002109D01*
X002303Y002066D01*
X002326Y002022D01*
X002345Y001976D01*
X002361Y001928D01*
X002373Y001879D01*
X002381Y001830D01*
X002385Y001780D01*
X002385Y001730D01*
X002381Y001680D01*
X002373Y001631D01*
X002361Y001582D01*
X002345Y001534D01*
X002326Y001488D01*
X002303Y001444D01*
X002276Y001401D01*
X002246Y001361D01*
X002214Y001323D01*
X002178Y001288D01*
X002139Y001256D01*
X002098Y001227D01*
X002055Y001201D01*
X002010Y001179D01*
X001964Y001161D01*
X001916Y001146D01*
X001867Y001135D01*
X001818Y001128D01*
X001768Y001125D01*
X001717Y001126D01*
X001668Y001131D01*
X001618Y001140D01*
X001570Y001153D01*
X001523Y001169D01*
X001477Y001190D01*
X001433Y001214D01*
X001391Y001241D01*
X001351Y001271D01*
X001314Y001305D01*
X001280Y001342D01*
X001248Y001381D01*
X001220Y001422D01*
X001195Y001466D01*
X001174Y001511D01*
X001157Y001558D01*
X001143Y001606D01*
X001133Y001655D01*
X001127Y001705D01*
X001125Y001755D01*
X017660Y012385D02*
X017662Y012435D01*
X017668Y012485D01*
X017678Y012534D01*
X017692Y012582D01*
X017709Y012629D01*
X017730Y012674D01*
X017755Y012718D01*
X017783Y012759D01*
X017815Y012798D01*
X017849Y012835D01*
X017886Y012869D01*
X017926Y012899D01*
X017968Y012926D01*
X018012Y012950D01*
X018058Y012971D01*
X018105Y012987D01*
X018153Y013000D01*
X018203Y013009D01*
X018252Y013014D01*
X018303Y013015D01*
X018353Y013012D01*
X018402Y013005D01*
X018451Y012994D01*
X018499Y012979D01*
X018545Y012961D01*
X018590Y012939D01*
X018633Y012913D01*
X018674Y012884D01*
X018713Y012852D01*
X018749Y012817D01*
X018781Y012779D01*
X018811Y012739D01*
X018838Y012696D01*
X018861Y012652D01*
X018880Y012606D01*
X018896Y012558D01*
X018908Y012509D01*
X018916Y012460D01*
X018920Y012410D01*
X018920Y012360D01*
X018916Y012310D01*
X018908Y012261D01*
X018896Y012212D01*
X018880Y012164D01*
X018861Y012118D01*
X018838Y012074D01*
X018811Y012031D01*
X018781Y011991D01*
X018749Y011953D01*
X018713Y011918D01*
X018674Y011886D01*
X018633Y011857D01*
X018590Y011831D01*
X018545Y011809D01*
X018499Y011791D01*
X018451Y011776D01*
X018402Y011765D01*
X018353Y011758D01*
X018303Y011755D01*
X018252Y011756D01*
X018203Y011761D01*
X018153Y011770D01*
X018105Y011783D01*
X018058Y011799D01*
X018012Y011820D01*
X017968Y011844D01*
X017926Y011871D01*
X017886Y011901D01*
X017849Y011935D01*
X017815Y011972D01*
X017783Y012011D01*
X017755Y012052D01*
X017730Y012096D01*
X017709Y012141D01*
X017692Y012188D01*
X017678Y012236D01*
X017668Y012285D01*
X017662Y012335D01*
X017660Y012385D01*
D11*
X014034Y012176D02*
X013254Y012176D01*
X009234Y012176D02*
X008454Y012176D01*
X008434Y009826D02*
X007654Y009826D01*
X008454Y007476D02*
X009234Y007476D01*
X013254Y007476D02*
X014034Y007476D01*
D12*
X005991Y007215D03*
X005991Y011215D03*
D13*
X014608Y004806D02*
X015201Y004806D01*
X013705Y001853D02*
X013111Y001853D01*
D14*
X018290Y002936D03*
X018290Y004904D03*
X018290Y006873D03*
X018290Y008841D03*
X001755Y009235D03*
X001755Y007267D03*
X001755Y005298D03*
X001755Y011204D03*
D15*
X005247Y002845D02*
X005767Y002845D01*
X005767Y001845D02*
X005247Y001845D01*
X008767Y001845D02*
X009287Y001845D01*
X009287Y002845D02*
X008767Y002845D01*
D16*
X010810Y002223D03*
X007767Y004904D03*
X007267Y005654D03*
X006767Y004904D03*
X004786Y004845D03*
X004786Y007845D03*
X010810Y005223D03*
D17*
X008841Y005101D02*
X008841Y007473D01*
X008844Y007476D01*
X008841Y005101D02*
X008645Y004904D01*
X007767Y004904D01*
X009735Y002845D02*
X010023Y003133D01*
X010023Y011794D01*
X009629Y012188D01*
X008856Y012188D01*
X008844Y012176D01*
X008652Y011984D01*
X008767Y002845D02*
X009735Y002845D01*
D18*
X009988Y002716D02*
X017756Y002716D01*
X017756Y002715D02*
X018069Y002402D01*
X018511Y002402D01*
X018824Y002715D01*
X018824Y003157D01*
X018511Y003470D01*
X018069Y003470D01*
X017756Y003157D01*
X017756Y002715D01*
X017756Y002875D02*
X010146Y002875D01*
X010175Y002904D02*
X010251Y002980D01*
X010293Y003079D01*
X010293Y011848D01*
X010251Y011947D01*
X009858Y012341D01*
X009782Y012417D01*
X009706Y012448D01*
X009692Y012482D01*
X009540Y012633D01*
X009342Y012716D01*
X008347Y012716D01*
X008148Y012633D01*
X007996Y012482D01*
X007914Y012283D01*
X007914Y012068D01*
X007996Y011870D01*
X008148Y011718D01*
X008347Y011636D01*
X009342Y011636D01*
X009540Y011718D01*
X009629Y011806D01*
X009753Y011682D01*
X009753Y007635D01*
X009692Y007782D01*
X009540Y007933D01*
X009342Y008016D01*
X008347Y008016D01*
X008148Y007933D01*
X007996Y007782D01*
X007914Y007583D01*
X007914Y007368D01*
X007996Y007170D01*
X008148Y007018D01*
X008347Y006936D01*
X008571Y006936D01*
X008571Y005213D01*
X008533Y005174D01*
X008076Y005174D01*
X007936Y005314D01*
X007597Y005314D01*
X007357Y005074D01*
X007357Y004735D01*
X007597Y004494D01*
X007936Y004494D01*
X008076Y004634D01*
X008698Y004634D01*
X008798Y004676D01*
X008994Y004872D01*
X009070Y004948D01*
X009111Y005048D01*
X009111Y006936D01*
X009342Y006936D01*
X009540Y007018D01*
X009692Y007170D01*
X009753Y007316D01*
X009753Y003245D01*
X009623Y003115D01*
X009596Y003115D01*
X009519Y003193D01*
X009368Y003255D01*
X008685Y003255D01*
X008534Y003193D01*
X008419Y003078D01*
X008357Y002927D01*
X008357Y002764D01*
X008419Y002613D01*
X008534Y002498D01*
X008685Y002435D01*
X009368Y002435D01*
X009519Y002498D01*
X009596Y002575D01*
X009789Y002575D01*
X009888Y002616D01*
X010175Y002904D01*
X010273Y003033D02*
X017756Y003033D01*
X017791Y003192D02*
X010293Y003192D01*
X010293Y003350D02*
X017949Y003350D01*
X018631Y003350D02*
X019585Y003350D01*
X019585Y003192D02*
X018790Y003192D01*
X018824Y003033D02*
X019585Y003033D01*
X019585Y002875D02*
X018824Y002875D01*
X018824Y002716D02*
X019585Y002716D01*
X019585Y002558D02*
X018667Y002558D01*
X017914Y002558D02*
X011056Y002558D01*
X010980Y002633D02*
X010640Y002633D01*
X010400Y002393D01*
X010400Y002053D01*
X010640Y001813D01*
X010980Y001813D01*
X011220Y002053D01*
X011220Y002393D01*
X010980Y002633D01*
X011214Y002399D02*
X019585Y002399D01*
X019585Y002241D02*
X013938Y002241D01*
X013958Y002232D02*
X013794Y002300D01*
X013023Y002300D01*
X012858Y002232D01*
X012733Y002106D01*
X012665Y001942D01*
X012665Y001764D01*
X012733Y001600D01*
X012858Y001474D01*
X013023Y001406D01*
X013794Y001406D01*
X013958Y001474D01*
X014084Y001600D01*
X014152Y001764D01*
X014152Y001942D01*
X014084Y002106D01*
X013958Y002232D01*
X014094Y002082D02*
X019585Y002082D01*
X019585Y001924D02*
X014152Y001924D01*
X014152Y001765D02*
X019585Y001765D01*
X019585Y001607D02*
X014087Y001607D01*
X013895Y001448D02*
X019585Y001448D01*
X019585Y001290D02*
X002547Y001290D01*
X002526Y001239D02*
X002665Y001574D01*
X002665Y001936D01*
X002526Y002270D01*
X002270Y002526D01*
X001936Y002665D01*
X001574Y002665D01*
X001239Y002526D01*
X000983Y002270D01*
X000845Y001936D01*
X000845Y001574D01*
X000983Y001239D01*
X001239Y000983D01*
X001574Y000845D01*
X001936Y000845D01*
X002270Y000983D01*
X002526Y001239D01*
X002418Y001131D02*
X019585Y001131D01*
X019585Y000973D02*
X002244Y000973D01*
X002613Y001448D02*
X005057Y001448D01*
X005078Y001438D02*
X005144Y001416D01*
X005212Y001405D01*
X005767Y001405D01*
X005801Y001405D01*
X005870Y001416D01*
X005936Y001438D01*
X005997Y001469D01*
X006053Y001510D01*
X006102Y001559D01*
X006143Y001615D01*
X006174Y001676D01*
X006196Y001742D01*
X006207Y001811D01*
X006207Y001845D01*
X005767Y001845D01*
X005767Y001845D01*
X005767Y001405D01*
X005767Y001845D01*
X005767Y001845D01*
X006207Y001845D01*
X006207Y001880D01*
X006196Y001948D01*
X006174Y002014D01*
X006143Y002076D01*
X006102Y002132D01*
X006053Y002181D01*
X005997Y002222D01*
X005936Y002253D01*
X005870Y002275D01*
X005801Y002285D01*
X005767Y002285D01*
X005767Y001845D01*
X005767Y001845D01*
X004807Y001845D01*
X004807Y001811D01*
X004817Y001742D01*
X004839Y001676D01*
X004870Y001615D01*
X004911Y001559D01*
X004960Y001510D01*
X005016Y001469D01*
X005078Y001438D01*
X004876Y001607D02*
X002665Y001607D01*
X002665Y001765D02*
X004814Y001765D01*
X004807Y001845D02*
X005767Y001845D01*
X005767Y001845D01*
X005767Y002285D01*
X005212Y002285D01*
X005144Y002275D01*
X005078Y002253D01*
X005016Y002222D01*
X004960Y002181D01*
X004911Y002132D01*
X004870Y002076D01*
X004839Y002014D01*
X004817Y001948D01*
X004807Y001880D01*
X004807Y001845D01*
X004814Y001924D02*
X002665Y001924D01*
X002604Y002082D02*
X004875Y002082D01*
X005053Y002241D02*
X002539Y002241D01*
X002397Y002399D02*
X010406Y002399D01*
X010400Y002241D02*
X009404Y002241D01*
X009368Y002255D02*
X009519Y002193D01*
X009634Y002078D01*
X009697Y001927D01*
X009697Y001764D01*
X009634Y001613D01*
X009519Y001498D01*
X009368Y001435D01*
X008685Y001435D01*
X008534Y001498D01*
X008419Y001613D01*
X008357Y001764D01*
X008357Y001927D01*
X008419Y002078D01*
X008534Y002193D01*
X008685Y002255D01*
X009368Y002255D01*
X009630Y002082D02*
X010400Y002082D01*
X010530Y001924D02*
X009697Y001924D01*
X009697Y001765D02*
X012665Y001765D01*
X012665Y001924D02*
X011090Y001924D01*
X011220Y002082D02*
X012723Y002082D01*
X012879Y002241D02*
X011220Y002241D01*
X010564Y002558D02*
X009579Y002558D01*
X009520Y003192D02*
X009699Y003192D01*
X009753Y003350D02*
X000460Y003350D01*
X000460Y003192D02*
X005013Y003192D01*
X005014Y003193D02*
X004899Y003078D01*
X004837Y002927D01*
X004837Y002764D01*
X004899Y002613D01*
X005014Y002498D01*
X005165Y002435D01*
X005848Y002435D01*
X005999Y002498D01*
X006114Y002613D01*
X006177Y002764D01*
X006177Y002927D01*
X006114Y003078D01*
X005999Y003193D01*
X005848Y003255D01*
X005165Y003255D01*
X005014Y003193D01*
X004881Y003033D02*
X000460Y003033D01*
X000460Y002875D02*
X004837Y002875D01*
X004856Y002716D02*
X000460Y002716D01*
X000460Y002558D02*
X001315Y002558D01*
X001112Y002399D02*
X000460Y002399D01*
X000460Y002241D02*
X000971Y002241D01*
X000905Y002082D02*
X000460Y002082D01*
X000460Y001924D02*
X000845Y001924D01*
X000845Y001765D02*
X000460Y001765D01*
X000460Y001607D02*
X000845Y001607D01*
X000897Y001448D02*
X000460Y001448D01*
X000460Y001290D02*
X000963Y001290D01*
X001092Y001131D02*
X000460Y001131D01*
X000460Y000973D02*
X001266Y000973D01*
X000460Y000814D02*
X019585Y000814D01*
X019585Y000656D02*
X000460Y000656D01*
X000460Y000497D02*
X019585Y000497D01*
X019585Y000460D02*
X000460Y000460D01*
X000460Y013680D01*
X019585Y013680D01*
X019585Y000460D01*
X019585Y003509D02*
X010293Y003509D01*
X010293Y003667D02*
X019585Y003667D01*
X019585Y003826D02*
X010293Y003826D01*
X010293Y003984D02*
X019585Y003984D01*
X019585Y004143D02*
X010293Y004143D01*
X010293Y004301D02*
X019585Y004301D01*
X019585Y004460D02*
X018600Y004460D01*
X018511Y004371D02*
X018824Y004683D01*
X018824Y005126D01*
X018511Y005438D01*
X018069Y005438D01*
X017756Y005126D01*
X017756Y004683D01*
X018069Y004371D01*
X018511Y004371D01*
X018759Y004618D02*
X019585Y004618D01*
X019585Y004777D02*
X018824Y004777D01*
X018824Y004935D02*
X019585Y004935D01*
X019585Y005094D02*
X018824Y005094D01*
X018698Y005252D02*
X019585Y005252D01*
X019585Y005411D02*
X018539Y005411D01*
X018041Y005411D02*
X011203Y005411D01*
X011220Y005393D02*
X010980Y005633D01*
X010640Y005633D01*
X010400Y005393D01*
X010400Y005053D01*
X010640Y004813D01*
X010980Y004813D01*
X011220Y005053D01*
X011220Y005393D01*
X011220Y005252D02*
X014517Y005252D01*
X014519Y005253D02*
X014354Y005185D01*
X014229Y005059D01*
X014161Y004895D01*
X014161Y004717D01*
X014229Y004553D01*
X014354Y004427D01*
X014519Y004359D01*
X015290Y004359D01*
X015454Y004427D01*
X015580Y004553D01*
X015648Y004717D01*
X015648Y004895D01*
X015580Y005059D01*
X015454Y005185D01*
X015290Y005253D01*
X014519Y005253D01*
X014263Y005094D02*
X011220Y005094D01*
X011101Y004935D02*
X014177Y004935D01*
X014161Y004777D02*
X010293Y004777D01*
X010293Y004935D02*
X010518Y004935D01*
X010400Y005094D02*
X010293Y005094D01*
X010293Y005252D02*
X010400Y005252D01*
X010417Y005411D02*
X010293Y005411D01*
X010293Y005569D02*
X010576Y005569D01*
X010293Y005728D02*
X019585Y005728D01*
X019585Y005886D02*
X010293Y005886D01*
X010293Y006045D02*
X019585Y006045D01*
X019585Y006203D02*
X010293Y006203D01*
X010293Y006362D02*
X018047Y006362D01*
X018069Y006339D02*
X018511Y006339D01*
X018824Y006652D01*
X018824Y007094D01*
X018511Y007407D01*
X018069Y007407D01*
X017756Y007094D01*
X017756Y006652D01*
X018069Y006339D01*
X017888Y006520D02*
X010293Y006520D01*
X010293Y006679D02*
X017756Y006679D01*
X017756Y006837D02*
X010293Y006837D01*
X010293Y006996D02*
X013002Y006996D01*
X012948Y007018D02*
X013147Y006936D01*
X014142Y006936D01*
X014340Y007018D01*
X014492Y007170D01*
X014574Y007368D01*
X014574Y007583D01*
X014492Y007782D01*
X014340Y007933D01*
X014142Y008016D01*
X013147Y008016D01*
X012948Y007933D01*
X012796Y007782D01*
X012714Y007583D01*
X012714Y007368D01*
X012796Y007170D01*
X012948Y007018D01*
X012812Y007154D02*
X010293Y007154D01*
X010293Y007313D02*
X012737Y007313D01*
X012714Y007471D02*
X010293Y007471D01*
X010293Y007630D02*
X012733Y007630D01*
X012803Y007788D02*
X010293Y007788D01*
X010293Y007947D02*
X012980Y007947D01*
X014309Y007947D02*
X019585Y007947D01*
X019585Y008105D02*
X010293Y008105D01*
X010293Y008264D02*
X019585Y008264D01*
X019585Y008422D02*
X018626Y008422D01*
X018511Y008308D02*
X018824Y008620D01*
X018824Y009063D01*
X018511Y009375D01*
X018069Y009375D01*
X017756Y009063D01*
X017756Y008620D01*
X018069Y008308D01*
X018511Y008308D01*
X018784Y008581D02*
X019585Y008581D01*
X019585Y008739D02*
X018824Y008739D01*
X018824Y008898D02*
X019585Y008898D01*
X019585Y009056D02*
X018824Y009056D01*
X018672Y009215D02*
X019585Y009215D01*
X019585Y009373D02*
X018514Y009373D01*
X018067Y009373D02*
X010293Y009373D01*
X010293Y009215D02*
X017908Y009215D01*
X017756Y009056D02*
X010293Y009056D01*
X010293Y008898D02*
X017756Y008898D01*
X017756Y008739D02*
X010293Y008739D01*
X010293Y008581D02*
X017796Y008581D01*
X017955Y008422D02*
X010293Y008422D01*
X009753Y008422D02*
X000460Y008422D01*
X000460Y008264D02*
X009753Y008264D01*
X009753Y008105D02*
X005106Y008105D01*
X005196Y008015D02*
X004956Y008255D01*
X004616Y008255D01*
X004376Y008015D01*
X004376Y007676D01*
X004616Y007435D01*
X004956Y007435D01*
X005196Y007676D01*
X005196Y008015D01*
X005196Y007947D02*
X008180Y007947D01*
X008003Y007788D02*
X005196Y007788D01*
X005150Y007630D02*
X005736Y007630D01*
X005719Y007622D02*
X005584Y007487D01*
X005511Y007311D01*
X005511Y007120D01*
X005584Y006944D01*
X005719Y006809D01*
X005896Y006735D01*
X006087Y006735D01*
X006263Y006809D01*
X006398Y006944D01*
X006471Y007120D01*
X006471Y007311D01*
X006398Y007487D01*
X006263Y007622D01*
X006087Y007695D01*
X005896Y007695D01*
X005719Y007622D01*
X005577Y007471D02*
X004992Y007471D01*
X004581Y007471D02*
X002289Y007471D01*
X002289Y007488D02*
X001976Y007800D01*
X001534Y007800D01*
X001221Y007488D01*
X001221Y007045D01*
X001534Y006733D01*
X001976Y006733D01*
X002289Y007045D01*
X002289Y007488D01*
X002289Y007313D02*
X005512Y007313D01*
X005511Y007154D02*
X002289Y007154D01*
X002239Y006996D02*
X005563Y006996D01*
X005691Y006837D02*
X002080Y006837D01*
X001429Y006837D02*
X000460Y006837D01*
X000460Y006679D02*
X008571Y006679D01*
X008571Y006837D02*
X006291Y006837D01*
X006419Y006996D02*
X008202Y006996D01*
X008012Y007154D02*
X006471Y007154D01*
X006470Y007313D02*
X007937Y007313D01*
X007914Y007471D02*
X006405Y007471D01*
X006246Y007630D02*
X007933Y007630D01*
X009111Y006837D02*
X009753Y006837D01*
X009753Y006679D02*
X009111Y006679D01*
X009111Y006520D02*
X009753Y006520D01*
X009753Y006362D02*
X009111Y006362D01*
X009111Y006203D02*
X009753Y006203D01*
X009753Y006045D02*
X009111Y006045D01*
X009111Y005886D02*
X009753Y005886D01*
X009753Y005728D02*
X009111Y005728D01*
X009111Y005569D02*
X009753Y005569D01*
X009753Y005411D02*
X009111Y005411D01*
X009111Y005252D02*
X009753Y005252D01*
X009753Y005094D02*
X009111Y005094D01*
X009057Y004935D02*
X009753Y004935D01*
X009753Y004777D02*
X008899Y004777D01*
X008571Y005252D02*
X007999Y005252D01*
X007677Y005485D02*
X007436Y005244D01*
X007097Y005244D01*
X006857Y005485D01*
X006857Y005824D01*
X007097Y006064D01*
X007436Y006064D01*
X007677Y005824D01*
X007677Y005485D01*
X007677Y005569D02*
X008571Y005569D01*
X008571Y005411D02*
X007603Y005411D01*
X007534Y005252D02*
X007444Y005252D01*
X007376Y005094D02*
X007200Y005094D01*
X007207Y005087D02*
X006949Y005344D01*
X006767Y005344D01*
X006767Y004904D01*
X006767Y004904D01*
X007207Y004904D01*
X007207Y004722D01*
X006949Y004464D01*
X006767Y004464D01*
X006767Y004904D01*
X006767Y004904D01*
X007207Y004904D01*
X007207Y005087D01*
X007207Y004935D02*
X007357Y004935D01*
X007357Y004777D02*
X007207Y004777D01*
X007102Y004618D02*
X007473Y004618D01*
X008060Y004618D02*
X009753Y004618D01*
X009753Y004460D02*
X004980Y004460D01*
X004956Y004435D02*
X005196Y004676D01*
X005196Y005015D01*
X004956Y005255D01*
X004616Y005255D01*
X004376Y005015D01*
X004376Y004676D01*
X004616Y004435D01*
X004956Y004435D01*
X005139Y004618D02*
X006431Y004618D01*
X006327Y004722D02*
X006584Y004464D01*
X006767Y004464D01*
X006767Y004904D01*
X006327Y004904D01*
X006327Y004722D01*
X006327Y004777D02*
X005196Y004777D01*
X005196Y004935D02*
X006327Y004935D01*
X006327Y004904D02*
X006767Y004904D01*
X006767Y004904D01*
X006767Y004904D01*
X006767Y005344D01*
X006584Y005344D01*
X006327Y005087D01*
X006327Y004904D01*
X006333Y005094D02*
X005118Y005094D01*
X004959Y005252D02*
X006492Y005252D01*
X006767Y005252D02*
X006767Y005252D01*
X006767Y005094D02*
X006767Y005094D01*
X006767Y004935D02*
X006767Y004935D01*
X006767Y004777D02*
X006767Y004777D01*
X006767Y004618D02*
X006767Y004618D01*
X007041Y005252D02*
X007089Y005252D01*
X006931Y005411D02*
X002319Y005411D01*
X002319Y005346D02*
X002319Y005532D01*
X001988Y005862D01*
X001803Y005862D01*
X001803Y005346D01*
X002319Y005346D01*
X002319Y005250D02*
X001803Y005250D01*
X001803Y005346D01*
X001707Y005346D01*
X001707Y005862D01*
X001521Y005862D01*
X001191Y005532D01*
X001191Y005346D01*
X001707Y005346D01*
X001707Y005250D01*
X001803Y005250D01*
X001803Y004734D01*
X001988Y004734D01*
X002319Y005065D01*
X002319Y005250D01*
X002319Y005094D02*
X004455Y005094D01*
X004613Y005252D02*
X001803Y005252D01*
X001707Y005252D02*
X000460Y005252D01*
X000460Y005094D02*
X001191Y005094D01*
X001191Y005065D02*
X001521Y004734D01*
X001707Y004734D01*
X001707Y005250D01*
X001191Y005250D01*
X001191Y005065D01*
X001320Y004935D02*
X000460Y004935D01*
X000460Y004777D02*
X001479Y004777D01*
X001707Y004777D02*
X001803Y004777D01*
X001803Y004935D02*
X001707Y004935D01*
X001707Y005094D02*
X001803Y005094D01*
X001803Y005411D02*
X001707Y005411D01*
X001707Y005569D02*
X001803Y005569D01*
X001803Y005728D02*
X001707Y005728D01*
X001387Y005728D02*
X000460Y005728D01*
X000460Y005886D02*
X006918Y005886D01*
X006857Y005728D02*
X002123Y005728D01*
X002281Y005569D02*
X006857Y005569D01*
X007077Y006045D02*
X000460Y006045D01*
X000460Y006203D02*
X008571Y006203D01*
X008571Y006045D02*
X007456Y006045D01*
X007615Y005886D02*
X008571Y005886D01*
X008571Y005728D02*
X007677Y005728D01*
X008571Y006362D02*
X000460Y006362D01*
X000460Y006520D02*
X008571Y006520D01*
X009486Y006996D02*
X009753Y006996D01*
X009753Y007154D02*
X009676Y007154D01*
X009751Y007313D02*
X009753Y007313D01*
X009753Y007788D02*
X009686Y007788D01*
X009753Y007947D02*
X009509Y007947D01*
X009753Y008581D02*
X000460Y008581D01*
X000460Y008739D02*
X001496Y008739D01*
X001534Y008701D02*
X001976Y008701D01*
X002289Y009014D01*
X002289Y009456D01*
X001976Y009769D01*
X001534Y009769D01*
X001221Y009456D01*
X001221Y009014D01*
X001534Y008701D01*
X001337Y008898D02*
X000460Y008898D01*
X000460Y009056D02*
X001221Y009056D01*
X001221Y009215D02*
X000460Y009215D01*
X000460Y009373D02*
X001221Y009373D01*
X001296Y009532D02*
X000460Y009532D01*
X000460Y009690D02*
X001455Y009690D01*
X002055Y009690D02*
X007126Y009690D01*
X007114Y009718D02*
X007196Y009520D01*
X007348Y009368D01*
X007547Y009286D01*
X008542Y009286D01*
X008740Y009368D01*
X008892Y009520D01*
X008974Y009718D01*
X008974Y009933D01*
X008892Y010132D01*
X008740Y010283D01*
X008542Y010366D01*
X007547Y010366D01*
X007348Y010283D01*
X007196Y010132D01*
X007114Y009933D01*
X007114Y009718D01*
X007114Y009849D02*
X000460Y009849D01*
X000460Y010007D02*
X007145Y010007D01*
X007230Y010166D02*
X000460Y010166D01*
X000460Y010324D02*
X007446Y010324D01*
X006398Y010944D02*
X006471Y011120D01*
X006471Y011311D01*
X006398Y011487D01*
X006263Y011622D01*
X006087Y011695D01*
X005896Y011695D01*
X005719Y011622D01*
X005584Y011487D01*
X005511Y011311D01*
X005511Y011120D01*
X005584Y010944D01*
X005719Y010809D01*
X005896Y010735D01*
X006087Y010735D01*
X006263Y010809D01*
X006398Y010944D01*
X006404Y010958D02*
X009753Y010958D01*
X009753Y010800D02*
X006241Y010800D01*
X006470Y011117D02*
X009753Y011117D01*
X009753Y011275D02*
X006471Y011275D01*
X006420Y011434D02*
X009753Y011434D01*
X009753Y011592D02*
X006293Y011592D01*
X005689Y011592D02*
X002121Y011592D01*
X001976Y011737D02*
X002289Y011425D01*
X002289Y010982D01*
X001976Y010670D01*
X001534Y010670D01*
X001221Y010982D01*
X001221Y011425D01*
X001534Y011737D01*
X001976Y011737D01*
X002280Y011434D02*
X005562Y011434D01*
X005511Y011275D02*
X002289Y011275D01*
X002289Y011117D02*
X005512Y011117D01*
X005578Y010958D02*
X002264Y010958D01*
X002106Y010800D02*
X005741Y010800D01*
X007192Y009532D02*
X002213Y009532D01*
X002289Y009373D02*
X007343Y009373D01*
X008745Y009373D02*
X009753Y009373D01*
X009753Y009215D02*
X002289Y009215D01*
X002289Y009056D02*
X009753Y009056D01*
X009753Y008898D02*
X002172Y008898D01*
X002014Y008739D02*
X009753Y008739D01*
X009753Y009532D02*
X008897Y009532D01*
X008962Y009690D02*
X009753Y009690D01*
X009753Y009849D02*
X008974Y009849D01*
X008944Y010007D02*
X009753Y010007D01*
X009753Y010166D02*
X008858Y010166D01*
X008642Y010324D02*
X009753Y010324D01*
X009753Y010483D02*
X000460Y010483D01*
X000460Y010641D02*
X009753Y010641D01*
X010293Y010641D02*
X019585Y010641D01*
X019585Y010483D02*
X010293Y010483D01*
X010293Y010324D02*
X019585Y010324D01*
X019585Y010166D02*
X010293Y010166D01*
X010293Y010007D02*
X019585Y010007D01*
X019585Y009849D02*
X010293Y009849D01*
X010293Y009690D02*
X019585Y009690D01*
X019585Y009532D02*
X010293Y009532D01*
X010293Y010800D02*
X019585Y010800D01*
X019585Y010958D02*
X010293Y010958D01*
X010293Y011117D02*
X019585Y011117D01*
X019585Y011275D02*
X010293Y011275D01*
X010293Y011434D02*
X019585Y011434D01*
X019585Y011592D02*
X018754Y011592D01*
X018806Y011613D02*
X019062Y011869D01*
X019200Y012204D01*
X019200Y012566D01*
X019062Y012900D01*
X018806Y013156D01*
X018471Y013295D01*
X018109Y013295D01*
X017775Y013156D01*
X017519Y012900D01*
X017380Y012566D01*
X017380Y012204D01*
X017519Y011869D01*
X017775Y011613D01*
X018109Y011475D01*
X018471Y011475D01*
X018806Y011613D01*
X018943Y011751D02*
X019585Y011751D01*
X019585Y011909D02*
X019078Y011909D01*
X019144Y012068D02*
X019585Y012068D01*
X019585Y012226D02*
X019200Y012226D01*
X019200Y012385D02*
X019585Y012385D01*
X019585Y012543D02*
X019200Y012543D01*
X019144Y012702D02*
X019585Y012702D01*
X019585Y012860D02*
X019078Y012860D01*
X018943Y013019D02*
X019585Y013019D01*
X019585Y013177D02*
X018755Y013177D01*
X019585Y013336D02*
X000460Y013336D01*
X000460Y013494D02*
X019585Y013494D01*
X019585Y013653D02*
X000460Y013653D01*
X000460Y013177D02*
X017825Y013177D01*
X017637Y013019D02*
X000460Y013019D01*
X000460Y012860D02*
X017502Y012860D01*
X017437Y012702D02*
X014176Y012702D01*
X014142Y012716D02*
X014340Y012633D01*
X014492Y012482D01*
X014574Y012283D01*
X014574Y012068D01*
X014492Y011870D01*
X014340Y011718D01*
X014142Y011636D01*
X013147Y011636D01*
X012948Y011718D01*
X012796Y011870D01*
X012714Y012068D01*
X012714Y012283D01*
X012796Y012482D01*
X012948Y012633D01*
X013147Y012716D01*
X014142Y012716D01*
X014430Y012543D02*
X017380Y012543D01*
X017380Y012385D02*
X014532Y012385D01*
X014574Y012226D02*
X017380Y012226D01*
X017437Y012068D02*
X014574Y012068D01*
X014508Y011909D02*
X017502Y011909D01*
X017638Y011751D02*
X014373Y011751D01*
X013113Y012702D02*
X009376Y012702D01*
X009630Y012543D02*
X012858Y012543D01*
X012756Y012385D02*
X009814Y012385D01*
X009973Y012226D02*
X012714Y012226D01*
X012714Y012068D02*
X010131Y012068D01*
X010267Y011909D02*
X012780Y011909D01*
X012916Y011751D02*
X010293Y011751D01*
X010293Y011592D02*
X017826Y011592D01*
X019585Y007788D02*
X014486Y007788D01*
X014555Y007630D02*
X019585Y007630D01*
X019585Y007471D02*
X014574Y007471D01*
X014551Y007313D02*
X017975Y007313D01*
X017816Y007154D02*
X014476Y007154D01*
X014286Y006996D02*
X017756Y006996D01*
X018606Y007313D02*
X019585Y007313D01*
X019585Y007154D02*
X018764Y007154D01*
X018824Y006996D02*
X019585Y006996D01*
X019585Y006837D02*
X018824Y006837D01*
X018824Y006679D02*
X019585Y006679D01*
X019585Y006520D02*
X018692Y006520D01*
X018534Y006362D02*
X019585Y006362D01*
X019585Y005569D02*
X011044Y005569D01*
X010293Y004618D02*
X014202Y004618D01*
X014322Y004460D02*
X010293Y004460D01*
X009753Y004301D02*
X000460Y004301D01*
X000460Y004143D02*
X009753Y004143D01*
X009753Y003984D02*
X000460Y003984D01*
X000460Y003826D02*
X009753Y003826D01*
X009753Y003667D02*
X000460Y003667D01*
X000460Y003509D02*
X009753Y003509D01*
X008533Y003192D02*
X006000Y003192D01*
X006133Y003033D02*
X008401Y003033D01*
X008357Y002875D02*
X006177Y002875D01*
X006157Y002716D02*
X008376Y002716D01*
X008475Y002558D02*
X006059Y002558D01*
X005960Y002241D02*
X008649Y002241D01*
X008423Y002082D02*
X006139Y002082D01*
X006200Y001924D02*
X008357Y001924D01*
X008357Y001765D02*
X006199Y001765D01*
X006137Y001607D02*
X008426Y001607D01*
X008655Y001448D02*
X005956Y001448D01*
X005767Y001448D02*
X005767Y001448D01*
X005767Y001607D02*
X005767Y001607D01*
X005767Y001765D02*
X005767Y001765D01*
X005767Y001924D02*
X005767Y001924D01*
X005767Y002082D02*
X005767Y002082D01*
X005767Y002241D02*
X005767Y002241D01*
X004955Y002558D02*
X002195Y002558D01*
X000460Y004460D02*
X004592Y004460D01*
X004434Y004618D02*
X000460Y004618D01*
X000460Y005411D02*
X001191Y005411D01*
X001228Y005569D02*
X000460Y005569D01*
X002031Y004777D02*
X004376Y004777D01*
X004376Y004935D02*
X002189Y004935D01*
X001271Y006996D02*
X000460Y006996D01*
X000460Y007154D02*
X001221Y007154D01*
X001221Y007313D02*
X000460Y007313D01*
X000460Y007471D02*
X001221Y007471D01*
X001363Y007630D02*
X000460Y007630D01*
X000460Y007788D02*
X001521Y007788D01*
X001988Y007788D02*
X004376Y007788D01*
X004376Y007947D02*
X000460Y007947D01*
X000460Y008105D02*
X004466Y008105D01*
X004422Y007630D02*
X002147Y007630D01*
X001404Y010800D02*
X000460Y010800D01*
X000460Y010958D02*
X001245Y010958D01*
X001221Y011117D02*
X000460Y011117D01*
X000460Y011275D02*
X001221Y011275D01*
X001230Y011434D02*
X000460Y011434D01*
X000460Y011592D02*
X001388Y011592D01*
X000460Y011751D02*
X008116Y011751D01*
X007980Y011909D02*
X000460Y011909D01*
X000460Y012068D02*
X007914Y012068D01*
X007914Y012226D02*
X000460Y012226D01*
X000460Y012385D02*
X007956Y012385D01*
X008058Y012543D02*
X000460Y012543D01*
X000460Y012702D02*
X008313Y012702D01*
X009573Y011751D02*
X009684Y011751D01*
X015292Y005252D02*
X017883Y005252D01*
X017756Y005094D02*
X015546Y005094D01*
X015631Y004935D02*
X017756Y004935D01*
X017756Y004777D02*
X015648Y004777D01*
X015607Y004618D02*
X017822Y004618D01*
X017980Y004460D02*
X015487Y004460D01*
X012730Y001607D02*
X009628Y001607D01*
X009399Y001448D02*
X012922Y001448D01*
M02*
