%
M48
M72
T01C0.0320
T02C0.0394
T03C0.0440
T04C0.0512
T05C0.0520
T06C0.1260
%
T01
X5767Y1845
X5767Y2845
X4786Y4845
X6767Y4904
X7267Y5654
X7767Y4904
X8767Y2845
X8767Y1845
X10810Y2223
X10810Y5223
X4786Y7845
T02
X13408Y1853
X14904Y4806
T03
X5991Y7215
X5991Y11215
T04
X1755Y11204
X1755Y9235
X1755Y7267
X1755Y5298
X18290Y4904
X18290Y2936
X18290Y6873
X18290Y8841
T05
X13644Y7476
X8844Y7476
X8044Y9826
X8844Y12176
X13644Y12176
T06
X1755Y1755
X18290Y12385
M30
