G75*
G70*
%OFA0B0*%
%FSLAX24Y24*%
%IPPOS*%
%LPD*%
%AMOC8*
5,1,8,0,0,1.08239X$1,22.5*
%
%ADD10C,0.0000*%
D10*
X000180Y000180D02*
X000180Y013960D01*
X019865Y013960D01*
X019865Y000180D01*
X000180Y000180D01*
X001125Y001755D02*
X001127Y001805D01*
X001133Y001855D01*
X001143Y001904D01*
X001157Y001952D01*
X001174Y001999D01*
X001195Y002044D01*
X001220Y002088D01*
X001248Y002129D01*
X001280Y002168D01*
X001314Y002205D01*
X001351Y002239D01*
X001391Y002269D01*
X001433Y002296D01*
X001477Y002320D01*
X001523Y002341D01*
X001570Y002357D01*
X001618Y002370D01*
X001668Y002379D01*
X001717Y002384D01*
X001768Y002385D01*
X001818Y002382D01*
X001867Y002375D01*
X001916Y002364D01*
X001964Y002349D01*
X002010Y002331D01*
X002055Y002309D01*
X002098Y002283D01*
X002139Y002254D01*
X002178Y002222D01*
X002214Y002187D01*
X002246Y002149D01*
X002276Y002109D01*
X002303Y002066D01*
X002326Y002022D01*
X002345Y001976D01*
X002361Y001928D01*
X002373Y001879D01*
X002381Y001830D01*
X002385Y001780D01*
X002385Y001730D01*
X002381Y001680D01*
X002373Y001631D01*
X002361Y001582D01*
X002345Y001534D01*
X002326Y001488D01*
X002303Y001444D01*
X002276Y001401D01*
X002246Y001361D01*
X002214Y001323D01*
X002178Y001288D01*
X002139Y001256D01*
X002098Y001227D01*
X002055Y001201D01*
X002010Y001179D01*
X001964Y001161D01*
X001916Y001146D01*
X001867Y001135D01*
X001818Y001128D01*
X001768Y001125D01*
X001717Y001126D01*
X001668Y001131D01*
X001618Y001140D01*
X001570Y001153D01*
X001523Y001169D01*
X001477Y001190D01*
X001433Y001214D01*
X001391Y001241D01*
X001351Y001271D01*
X001314Y001305D01*
X001280Y001342D01*
X001248Y001381D01*
X001220Y001422D01*
X001195Y001466D01*
X001174Y001511D01*
X001157Y001558D01*
X001143Y001606D01*
X001133Y001655D01*
X001127Y001705D01*
X001125Y001755D01*
X017660Y012385D02*
X017662Y012435D01*
X017668Y012485D01*
X017678Y012534D01*
X017692Y012582D01*
X017709Y012629D01*
X017730Y012674D01*
X017755Y012718D01*
X017783Y012759D01*
X017815Y012798D01*
X017849Y012835D01*
X017886Y012869D01*
X017926Y012899D01*
X017968Y012926D01*
X018012Y012950D01*
X018058Y012971D01*
X018105Y012987D01*
X018153Y013000D01*
X018203Y013009D01*
X018252Y013014D01*
X018303Y013015D01*
X018353Y013012D01*
X018402Y013005D01*
X018451Y012994D01*
X018499Y012979D01*
X018545Y012961D01*
X018590Y012939D01*
X018633Y012913D01*
X018674Y012884D01*
X018713Y012852D01*
X018749Y012817D01*
X018781Y012779D01*
X018811Y012739D01*
X018838Y012696D01*
X018861Y012652D01*
X018880Y012606D01*
X018896Y012558D01*
X018908Y012509D01*
X018916Y012460D01*
X018920Y012410D01*
X018920Y012360D01*
X018916Y012310D01*
X018908Y012261D01*
X018896Y012212D01*
X018880Y012164D01*
X018861Y012118D01*
X018838Y012074D01*
X018811Y012031D01*
X018781Y011991D01*
X018749Y011953D01*
X018713Y011918D01*
X018674Y011886D01*
X018633Y011857D01*
X018590Y011831D01*
X018545Y011809D01*
X018499Y011791D01*
X018451Y011776D01*
X018402Y011765D01*
X018353Y011758D01*
X018303Y011755D01*
X018252Y011756D01*
X018203Y011761D01*
X018153Y011770D01*
X018105Y011783D01*
X018058Y011799D01*
X018012Y011820D01*
X017968Y011844D01*
X017926Y011871D01*
X017886Y011901D01*
X017849Y011935D01*
X017815Y011972D01*
X017783Y012011D01*
X017755Y012052D01*
X017730Y012096D01*
X017709Y012141D01*
X017692Y012188D01*
X017678Y012236D01*
X017668Y012285D01*
X017662Y012335D01*
X017660Y012385D01*
M02*
