M48
;DRILL file {KiCad 4.0.7} date 2018 March 06, Tuesday 18:35:14
;FORMAT={-:-/ absolute / inch / decimal}
FMAT,2
INCH,TZ
T1C0.016
T2C0.031
T3C0.039
T4C0.039
T5C0.040
T6C0.053
T7C0.055
%
G90
G05
M72
T1
X1.0744Y-1.05
X1.2244Y-1.2
X1.4244Y-2.35
X1.4334Y-4.2999
X1.4825Y-4.3413
X1.5244Y-1.35
X1.6244Y-4.25
X1.6244Y-4.3
X1.6244Y-4.55
X1.6244Y-5.25
X1.6244Y-6.25
X1.6744Y-2.
X1.6744Y-2.25
X1.6744Y-3.25
X1.6744Y-3.85
X1.7244Y-2.25
X1.7244Y-3.25
X1.7244Y-3.9
X1.7244Y-4.25
X1.7244Y-5.25
X1.7244Y-6.25
X1.7744Y-1.35
X1.9237Y-4.31
X1.9759Y-6.1882
X2.0178Y-4.2042
X2.0244Y-2.4
X2.0244Y-4.5
X2.0244Y-4.6
X2.0744Y-3.45
X2.1244Y-4.5
X2.1744Y-3.45
X2.1744Y-4.55
X2.2726Y-5.589
X2.2744Y-3.5
X2.3244Y-2.15
X2.3244Y-2.8
X2.3244Y-3.35
X2.3244Y-4.1
X2.3744Y-2.45
X2.4244Y-4.55
X2.4744Y-3.2
X2.6244Y-2.45
X2.7744Y-5.6
X2.8244Y-2.85
X2.8529Y-3.606
X2.8744Y-1.8
X2.8744Y-2.25
X2.8865Y-3.4973
X2.9244Y-2.
X2.988Y-4.578
X3.0244Y-2.3
X3.0244Y-3.45
X3.0244Y-5.35
X3.0301Y-4.7443
X3.0376Y-5.5169
X3.1189Y-1.3899
X3.1244Y-1.2
X3.1244Y-5.
X3.128Y-5.6006
X3.1744Y-5.15
X3.2189Y-3.4611
X3.2744Y-4.5
X3.3244Y-1.2
X3.3244Y-1.4
X3.4005Y-5.1578
X3.4244Y-4.3
X3.4244Y-5.5
X3.4688Y-2.3015
X3.4744Y-3.2
X3.4744Y-3.9
X3.4744Y-4.25
X3.5085Y-2.5577
X3.5244Y-4.3
X3.5744Y-1.35
X3.5744Y-1.45
X3.5949Y-2.736
X3.6015Y-3.4595
X3.6244Y-1.45
X3.6244Y-3.15
X3.6744Y-2.6
X3.7111Y-4.0768
X3.7181Y-2.4668
X3.7229Y-2.0702
X3.7244Y-1.4
X3.7244Y-2.3
X3.7244Y-3.25
X3.7244Y-3.4
X3.7244Y-3.9
X3.7304Y-2.7819
X3.7702Y-2.9722
X3.7744Y-3.2
X3.7744Y-4.25
X3.7744Y-4.45
X3.7795Y-3.155
X3.8244Y-2.2
X3.8244Y-3.25
X3.8244Y-3.45
X3.8594Y-3.315
X3.9227Y-3.9965
X3.9244Y-1.45
X3.9244Y-2.1
X3.9244Y-3.4
X3.933Y-4.1916
X4.0244Y-1.4
X4.0244Y-2.65
X4.1244Y-5.1
X4.1244Y-5.5
X4.1244Y-5.6
X4.1744Y-3.15
X4.1744Y-5.85
X4.2269Y-2.5983
X4.2342Y-3.2456
X4.2744Y-5.25
X4.2744Y-5.95
X4.3131Y-2.7517
X4.3244Y-3.3
X4.3244Y-5.5
X4.3244Y-5.6
X4.3744Y-1.8
X4.3744Y-4.15
X4.3864Y-3.1872
X4.4244Y-3.6
X4.4244Y-3.7
X4.4744Y-1.35
X4.4744Y-1.55
X4.4744Y-4.6
X4.4744Y-4.65
X4.4744Y-5.5
X4.4744Y-5.55
X4.5669Y-3.4166
X4.5744Y-4.15
X4.5744Y-5.5
X4.6244Y-1.6
X4.6244Y-4.
X4.6244Y-4.55
X4.6244Y-5.55
X4.6494Y-3.3965
X4.6744Y-1.7
X4.7244Y-1.8
X4.7244Y-3.15
X4.7244Y-3.25
X4.7244Y-3.7
X4.7244Y-3.75
X4.7244Y-3.8
X4.7244Y-4.25
X4.7383Y-5.4209
X4.7744Y-3.45
X4.7747Y-5.4494
X4.8244Y-3.45
X4.8244Y-3.6
X4.8244Y-4.6
X4.8244Y-5.05
X4.8244Y-5.6
X4.901Y-5.5323
X4.9134Y-5.4799
X4.9244Y-3.6
X4.9495Y-5.4535
X4.9629Y-1.1543
X4.9744Y-3.1
X4.9744Y-4.
X4.9744Y-4.85
X4.9744Y-5.2
X4.9744Y-5.25
X5.0032Y-1.7506
X5.0048Y-1.8013
X5.0122Y-1.347
X5.0122Y-1.4579
X5.0122Y-1.5027
X5.0158Y-1.3899
X5.0244Y-3.6
X5.0244Y-4.75
X5.0244Y-4.8
X5.0244Y-4.9
X5.0244Y-5.5
X5.0744Y-4.25
X5.1244Y-1.2
X5.1244Y-1.25
X5.1744Y-4.25
X5.1744Y-6.15
X5.1944Y-2.7155
X5.2244Y-2.35
X5.2244Y-2.45
X5.2244Y-2.65
X5.2244Y-3.15
X5.2744Y-2.6
X5.2744Y-3.
X5.2744Y-3.1
X5.2744Y-3.2
X5.2744Y-3.5
X5.3244Y-2.25
X5.3244Y-2.45
X5.3244Y-2.55
X5.3244Y-3.1
X5.3244Y-3.2
X5.3744Y-3.1
X5.3744Y-3.2
X5.4244Y-1.65
X5.4244Y-1.7
X5.4244Y-1.9
X5.4244Y-1.95
X5.4244Y-2.35
X5.4244Y-2.4
X5.4244Y-3.7
X5.4244Y-3.75
X5.4244Y-3.8
X5.4244Y-3.85
X5.4244Y-3.9
X5.4744Y-2.1
X5.4744Y-2.85
X5.4744Y-3.2
X5.4753Y-4.9567
X5.4772Y-3.6509
X5.5047Y-5.3278
X5.5244Y-2.
X5.5244Y-2.35
X5.5244Y-2.5
X5.5244Y-2.65
X5.5244Y-2.9
X5.5244Y-3.45
X5.5744Y-1.25
X5.5744Y-1.5
X5.5744Y-2.5
X5.5744Y-2.95
X5.5744Y-3.25
X5.5744Y-3.4
X5.5744Y-4.5
X5.5744Y-4.75
X5.5951Y-1.5599
X5.5958Y-1.7
X5.6124Y-2.6351
X5.6244Y-1.65
X5.6244Y-2.15
X5.6244Y-2.4
X5.6244Y-2.95
X5.6244Y-3.05
X5.6244Y-3.3
X5.6244Y-3.35
X5.6542Y-2.7473
X5.7244Y-4.8
X5.7744Y-1.75
X5.7744Y-5.6
X5.7757Y-1.1146
X5.8244Y-2.75
X5.8244Y-2.85
X5.8244Y-3.95
X5.8744Y-4.8
X5.9244Y-4.45
X5.9744Y-3.25
X5.9744Y-5.8
X6.0244Y-3.55
X6.0244Y-4.5
X6.0244Y-4.7
X6.0244Y-4.8
X6.0244Y-5.25
X6.0244Y-5.45
X6.0744Y-1.
X6.0744Y-1.15
X6.0744Y-1.75
X6.0744Y-3.2
X6.0744Y-3.45
X6.0744Y-3.65
X6.0744Y-4.6
X6.0744Y-5.85
X6.1244Y-1.15
X6.1244Y-3.15
X6.1244Y-3.85
X6.1244Y-4.05
X6.1244Y-4.3
X6.126Y-2.7823
X6.2744Y-2.3
X6.311Y-2.5106
X6.3244Y-1.7
X6.3244Y-3.6
X6.3244Y-5.15
X6.3244Y-5.25
X6.3244Y-5.35
X6.3244Y-5.55
X6.3641Y-2.5222
X6.3744Y-1.7
X6.3744Y-2.35
X6.3744Y-3.3
X6.3744Y-3.6
X6.3744Y-5.6
X6.4244Y-5.2
T2
X1.2744Y-1.15
X1.2744Y-1.35
X1.2744Y-1.55
X1.2744Y-1.65
X1.2744Y-1.75
X1.2744Y-1.85
X1.2744Y-1.95
X1.2744Y-2.05
X1.2744Y-2.15
X1.2744Y-2.25
X1.2744Y-2.55
X1.2744Y-2.65
X1.2744Y-2.75
X1.2744Y-2.85
X1.2744Y-2.95
X1.2744Y-3.05
X1.2744Y-3.15
X1.2744Y-3.25
X1.2744Y-3.55
X1.2744Y-3.65
X1.2744Y-3.75
X1.2744Y-3.85
X1.2744Y-3.95
X1.2744Y-4.05
X1.2744Y-4.15
X1.2744Y-4.25
X1.2744Y-4.55
X1.2744Y-4.65
X1.2744Y-4.75
X1.2744Y-4.85
X1.2744Y-4.95
X1.2744Y-5.05
X1.2744Y-5.15
X1.2744Y-5.25
X1.2744Y-5.55
X1.2744Y-5.65
X1.2744Y-5.75
X1.2744Y-5.85
X1.2744Y-5.95
X1.2744Y-6.05
X1.2744Y-6.15
X1.2744Y-6.25
X1.3744Y-1.35
X1.3744Y-1.55
X1.3744Y-1.65
X1.3744Y-1.75
X1.3744Y-1.85
X1.3744Y-1.95
X1.3744Y-2.05
X1.3744Y-2.15
X1.3744Y-2.25
X1.3744Y-2.55
X1.3744Y-2.65
X1.3744Y-2.75
X1.3744Y-2.85
X1.3744Y-2.95
X1.3744Y-3.05
X1.3744Y-3.15
X1.3744Y-3.25
X1.3744Y-3.55
X1.3744Y-3.65
X1.3744Y-3.75
X1.3744Y-3.85
X1.3744Y-3.95
X1.3744Y-4.05
X1.3744Y-4.15
X1.3744Y-4.25
X1.3744Y-4.55
X1.3744Y-4.65
X1.3744Y-4.75
X1.3744Y-4.85
X1.3744Y-4.95
X1.3744Y-5.05
X1.3744Y-5.15
X1.3744Y-5.25
X1.3744Y-5.55
X1.3744Y-5.65
X1.3744Y-5.75
X1.3744Y-5.85
X1.3744Y-5.95
X1.3744Y-6.05
X1.3744Y-6.15
X1.3744Y-6.25
X1.4744Y-1.15
X1.5244Y-1.55
X1.5244Y-1.65
X1.5244Y-1.75
X1.5244Y-1.85
X1.5244Y-1.95
X1.5244Y-2.05
X1.5244Y-2.15
X1.5244Y-2.25
X1.5244Y-2.55
X1.5244Y-2.65
X1.5244Y-2.75
X1.5244Y-2.85
X1.5244Y-2.95
X1.5244Y-3.05
X1.5244Y-3.15
X1.5244Y-3.25
X1.5244Y-3.55
X1.5244Y-3.65
X1.5244Y-3.75
X1.5244Y-3.85
X1.5244Y-3.95
X1.5244Y-4.05
X1.5244Y-4.15
X1.5244Y-4.25
X1.5244Y-4.55
X1.5244Y-4.65
X1.5244Y-4.75
X1.5244Y-4.85
X1.5244Y-4.95
X1.5244Y-5.05
X1.5244Y-5.15
X1.5244Y-5.25
X1.5244Y-5.55
X1.5244Y-5.65
X1.5244Y-5.75
X1.5244Y-5.85
X1.5244Y-5.95
X1.5244Y-6.05
X1.5244Y-6.15
X1.5244Y-6.25
X1.5776Y-2.4
X1.5776Y-3.4
X1.5776Y-4.4
X1.5776Y-5.4
X1.5776Y-6.4
X1.7744Y-2.4
X1.7744Y-3.4
X1.7744Y-4.4
X1.7744Y-5.4
X1.7744Y-6.4
X1.8244Y-1.55
X1.8244Y-1.65
X1.8244Y-1.75
X1.8244Y-1.85
X1.8244Y-1.95
X1.8244Y-2.05
X1.8244Y-2.15
X1.8244Y-2.25
X1.8244Y-2.55
X1.8244Y-2.65
X1.8244Y-2.75
X1.8244Y-2.85
X1.8244Y-2.95
X1.8244Y-3.05
X1.8244Y-3.15
X1.8244Y-3.25
X1.8244Y-3.55
X1.8244Y-3.65
X1.8244Y-3.75
X1.8244Y-3.85
X1.8244Y-3.95
X1.8244Y-4.05
X1.8244Y-4.15
X1.8244Y-4.25
X1.8244Y-4.55
X1.8244Y-4.65
X1.8244Y-4.75
X1.8244Y-4.85
X1.8244Y-4.95
X1.8244Y-5.05
X1.8244Y-5.15
X1.8244Y-5.25
X1.8244Y-5.55
X1.8244Y-5.65
X1.8244Y-5.75
X1.8244Y-5.85
X1.8244Y-5.95
X1.8244Y-6.05
X1.8244Y-6.15
X1.8244Y-6.25
X1.9744Y-1.75
X1.9744Y-1.85
X1.9744Y-2.55
X1.9744Y-2.65
X1.9744Y-3.45
X1.9744Y-3.55
X1.9744Y-3.85
X1.9744Y-3.95
X1.9744Y-5.4
X1.9744Y-5.65
X1.9744Y-5.75
X1.9744Y-5.85
X1.9744Y-5.95
X2.0244Y-4.4
X2.0244Y-4.7
X2.0744Y-2.55
X2.0744Y-2.65
X2.0744Y-5.4
X2.0744Y-5.65
X2.0744Y-5.75
X2.0744Y-5.85
X2.0744Y-5.95
X2.1244Y-1.75
X2.1244Y-2.05
X2.1244Y-3.75
X2.1244Y-4.05
X2.1244Y-4.4
X2.1244Y-4.7
X2.1744Y-4.85
X2.1744Y-4.95
X2.2244Y-1.55
X2.2244Y-1.65
X2.2244Y-1.75
X2.2244Y-1.85
X2.2244Y-1.95
X2.2244Y-2.05
X2.2244Y-2.35
X2.2244Y-2.45
X2.2244Y-2.55
X2.2244Y-2.65
X2.2244Y-2.75
X2.2244Y-2.85
X2.2244Y-2.95
X2.2244Y-3.55
X2.2244Y-3.65
X2.2244Y-3.75
X2.2244Y-3.85
X2.2244Y-3.95
X2.2244Y-4.05
X2.2244Y-4.25
X2.2244Y-4.4
X2.2244Y-4.7
X2.2744Y-4.85
X2.2744Y-4.95
X2.2776Y-3.1
X2.3244Y-4.25
X2.3244Y-4.4
X2.3244Y-4.7
X2.3744Y-1.2
X2.3744Y-1.3
X2.3744Y-1.6
X2.3744Y-1.9
X2.3744Y-2.05
X2.3744Y-3.75
X2.3744Y-3.9
X2.3744Y-4.05
X2.3744Y-5.45
X2.3744Y-5.75
X2.3744Y-5.9031
X2.3744Y-6.1
X2.3744Y-6.25
X2.3744Y-6.35
X2.3776Y-1.75
X2.3776Y-3.6
X2.4244Y-4.25
X2.4244Y-4.4
X2.4244Y-4.7
X2.4744Y-3.1
X2.4744Y-4.85
X2.4744Y-4.95
X2.4744Y-5.1
X2.4744Y-5.2969
X2.4744Y-5.45
X2.4744Y-5.75
X2.4744Y-6.25
X2.5244Y-2.35
X2.5244Y-2.45
X2.5244Y-2.55
X2.5244Y-2.65
X2.5244Y-2.75
X2.5244Y-2.85
X2.5244Y-2.95
X2.5244Y-4.25
X2.5244Y-4.4
X2.5244Y-4.7
X2.5244Y-5.9031
X2.5244Y-6.1
X2.5713Y-1.6
X2.5713Y-1.9
X2.5713Y-2.05
X2.5713Y-3.75
X2.5713Y-3.9
X2.5713Y-4.05
X2.5744Y-1.75
X2.5744Y-3.6
X2.5744Y-4.95
X2.5744Y-5.45
X2.5744Y-5.75
X2.5744Y-6.25
X2.6244Y-4.4
X2.6244Y-4.7
X2.6244Y-5.1
X2.6244Y-5.2969
X2.6744Y-1.2
X2.6744Y-1.3
X2.6744Y-2.55
X2.6744Y-2.65
X2.6744Y-2.75
X2.6744Y-2.85
X2.6744Y-4.95
X2.6744Y-5.45
X2.6744Y-5.75
X2.6744Y-5.9
X2.6744Y-6.0969
X2.6744Y-6.25
X2.6744Y-6.35
X2.7244Y-1.55
X2.7244Y-1.65
X2.7244Y-1.75
X2.7244Y-1.85
X2.7244Y-1.95
X2.7244Y-2.05
X2.7244Y-2.15
X2.7244Y-3.55
X2.7244Y-3.65
X2.7244Y-3.75
X2.7244Y-3.85
X2.7244Y-3.95
X2.7244Y-4.05
X2.7244Y-4.15
X2.7744Y-4.4531
X2.7744Y-4.65
X2.7744Y-4.85
X2.7744Y-4.95
X2.7744Y-5.1031
X2.7744Y-5.3
X2.7744Y-5.45
X2.7744Y-5.75
X2.7744Y-6.25
X2.7776Y-4.3
X2.8244Y-1.2
X2.8244Y-3.
X2.8244Y-3.3
X2.8244Y-5.9
X2.8244Y-6.0969
X2.8744Y-4.95
X2.8744Y-5.45
X2.8744Y-5.75
X2.8744Y-6.25
X2.9244Y-1.2
X2.9244Y-2.4
X2.9244Y-2.5
X2.9244Y-2.65
X2.9244Y-2.8469
X2.9244Y-3.
X2.9244Y-3.3
X2.9244Y-5.1031
X2.9244Y-5.3
X2.9744Y-4.3
X2.9744Y-4.95
X2.9744Y-5.45
X2.9744Y-5.75
X2.9744Y-5.9031
X2.9744Y-6.1
X3.0244Y-1.55
X3.0244Y-1.65
X3.0244Y-1.75
X3.0244Y-1.85
X3.0244Y-1.95
X3.0244Y-2.05
X3.0244Y-2.15
X3.0244Y-2.5
X3.0244Y-3.
X3.0244Y-3.3
X3.0244Y-3.55
X3.0244Y-3.65
X3.0244Y-3.75
X3.0244Y-3.85
X3.0244Y-3.95
X3.0244Y-4.05
X3.0244Y-4.15
X3.0744Y-0.7531
X3.0744Y-0.95
X3.0744Y-2.6531
X3.0744Y-2.85
X3.1244Y-2.5
X3.1244Y-3.
X3.1244Y-3.3
X3.1744Y-1.7
X3.1744Y-3.85
X3.1744Y-4.
X3.1776Y-1.55
X3.1776Y-1.85
X3.1776Y-2.
X3.1776Y-2.15
X3.1776Y-3.7
X3.1776Y-4.15
X3.2244Y-2.4
X3.2244Y-2.5
X3.2244Y-2.65
X3.2244Y-2.8469
X3.2244Y-3.
X3.2244Y-3.3
X3.3244Y-2.4
X3.3244Y-2.5
X3.3244Y-3.
X3.3244Y-3.3
X3.3494Y-0.8016
X3.3494Y-0.9
X3.3713Y-1.7
X3.3713Y-3.85
X3.3713Y-4.
X3.3744Y-1.55
X3.3744Y-1.85
X3.3744Y-2.
X3.3744Y-2.15
X3.3744Y-2.6531
X3.3744Y-2.85
X3.3744Y-3.7
X3.3744Y-4.15
X3.4244Y-2.4
X3.4244Y-2.5
X3.4244Y-3.
X3.4244Y-3.3
X3.5244Y-1.65
X3.5244Y-1.75
X3.5244Y-1.85
X3.5244Y-1.95
X3.5244Y-2.05
X3.5244Y-2.15
X3.5244Y-3.65
X3.5244Y-3.75
X3.5244Y-3.85
X3.5244Y-3.95
X3.5244Y-4.05
X3.5244Y-4.15
X3.5744Y-3.05
X3.5744Y-3.2469
X3.6244Y-1.85
X3.6244Y-2.15
X3.6244Y-3.85
X3.6244Y-4.15
X3.8744Y-4.85
X3.8744Y-4.95
X3.8744Y-5.55
X3.8744Y-5.65
X3.8744Y-6.25
X3.8744Y-6.35
X3.9744Y-4.85
X3.9744Y-4.95
X3.9744Y-5.55
X3.9744Y-5.65
X3.9744Y-6.25
X3.9744Y-6.35
X4.0994Y-3.425
X4.1244Y-1.5
X4.1244Y-1.6
X4.1244Y-1.7
X4.1244Y-1.95
X4.1244Y-2.05
X4.1244Y-2.3
X4.1244Y-2.4
X4.1244Y-2.5
X4.1244Y-3.55
X4.1244Y-3.65
X4.1244Y-3.75
X4.1244Y-3.85
X4.1244Y-3.95
X4.1244Y-4.05
X4.1244Y-4.3
X4.1244Y-4.4
X4.1994Y-3.425
X4.2244Y-1.5
X4.2244Y-1.6
X4.2244Y-1.7
X4.2244Y-1.95
X4.2244Y-2.05
X4.2244Y-2.3
X4.2244Y-2.4
X4.2244Y-2.5
X4.2244Y-3.55
X4.2244Y-3.65
X4.2244Y-3.75
X4.2244Y-3.85
X4.2244Y-3.95
X4.2244Y-4.05
X4.2244Y-4.3
X4.2244Y-4.4
X4.4244Y-4.85
X4.4244Y-4.95
X4.4244Y-5.1
X4.4244Y-5.2
X4.4526Y-3.3
X4.4744Y-5.85
X4.4744Y-6.15
X4.4776Y-2.7
X4.5244Y-1.7
X4.5244Y-1.8
X4.5244Y-1.9
X4.5244Y-2.
X4.5244Y-2.1
X4.5244Y-2.2
X4.5244Y-2.3
X4.5244Y-2.4
X4.5244Y-3.7
X4.5244Y-3.8
X4.5244Y-3.9
X4.5244Y-4.
X4.5244Y-4.1
X4.5244Y-4.2
X4.5244Y-4.3
X4.5244Y-4.4
X4.5744Y-1.55
X4.5744Y-2.9
X4.5744Y-3.0969
X4.5744Y-3.55
X4.5744Y-4.85
X4.5744Y-4.95
X4.5744Y-5.1
X4.5744Y-5.2
X4.5744Y-5.65
X4.5744Y-5.75
X4.5744Y-5.85
X4.5744Y-5.95
X4.5744Y-6.05
X4.5744Y-6.15
X4.6494Y-3.3
X4.6744Y-2.7
X4.7244Y-4.85
X4.7244Y-4.95
X4.7244Y-5.1
X4.7244Y-5.2
X4.7244Y-6.15
X4.7276Y-5.7
X4.7276Y-5.85
X4.7276Y-6.
X4.7713Y-1.55
X4.7713Y-3.55
X4.7776Y-2.8
X4.8244Y-1.7
X4.8244Y-1.8
X4.8244Y-1.9
X4.8244Y-2.
X4.8244Y-2.1
X4.8244Y-2.2
X4.8244Y-2.3
X4.8244Y-2.4
X4.8244Y-3.7
X4.8244Y-3.8
X4.8244Y-3.9
X4.8244Y-4.
X4.8244Y-4.1
X4.8244Y-4.2
X4.8244Y-4.3
X4.8244Y-4.4
X4.8744Y-2.7
X4.8744Y-3.2
X4.8744Y-3.3
X4.8744Y-3.4
X4.9213Y-6.15
X4.9244Y-5.7
X4.9244Y-5.85
X4.9244Y-6.
X4.9744Y-2.2
X4.9744Y-2.3
X4.9744Y-2.7
X4.9744Y-2.8
X4.9744Y-3.2
X4.9744Y-3.3
X4.9744Y-3.4
X4.9744Y-3.7
X4.9744Y-3.8
X5.0744Y-5.65
X5.0744Y-5.75
X5.0744Y-5.85
X5.0744Y-5.95
X5.0744Y-6.05
X5.0744Y-6.15
X5.0744Y-6.25
X5.1244Y-1.9
X5.1244Y-2.
X5.1244Y-2.1
X5.1244Y-2.2
X5.1244Y-2.3
X5.1244Y-2.4
X5.1244Y-2.5
X5.1244Y-2.6
X5.1244Y-2.7
X5.1244Y-2.8
X5.1244Y-2.9
X5.1244Y-3.
X5.1244Y-3.1
X5.1244Y-3.2
X5.1244Y-3.3
X5.1244Y-3.4
X5.1244Y-3.5
X5.1244Y-3.6
X5.1244Y-3.7
X5.1244Y-3.8
X5.1244Y-5.5
X5.1246Y-4.5461
X5.1246Y-4.8461
X5.2246Y-4.5461
X5.2246Y-4.8461
X5.3213Y-5.5
X5.3744Y-5.65
X5.3744Y-5.75
X5.3744Y-5.85
X5.3744Y-5.95
X5.3744Y-6.05
X5.3744Y-6.15
X5.3744Y-6.25
X5.3746Y-4.3461
X5.3746Y-4.4461
X5.3746Y-4.5461
X5.3746Y-4.6461
X5.3746Y-4.7461
X5.3746Y-4.8461
X5.3746Y-4.9461
X5.4246Y-5.0961
X5.5244Y-5.85
X5.5244Y-5.95
X5.5244Y-6.1
X5.5276Y-6.25
X5.6215Y-5.0961
X5.6494Y-5.85
X5.6494Y-5.95
X5.6746Y-4.3461
X5.6746Y-4.4461
X5.6746Y-4.5461
X5.6746Y-4.6461
X5.6746Y-4.7461
X5.6746Y-4.8461
X5.6746Y-4.9461
X5.7213Y-6.1
X5.7244Y-1.9
X5.7244Y-2.
X5.7244Y-2.1
X5.7244Y-2.2
X5.7244Y-2.3
X5.7244Y-2.4
X5.7244Y-2.5
X5.7244Y-2.6
X5.7244Y-2.7
X5.7244Y-2.8
X5.7244Y-2.9
X5.7244Y-3.
X5.7244Y-3.1
X5.7244Y-3.2
X5.7244Y-3.3
X5.7244Y-3.4
X5.7244Y-3.5
X5.7244Y-3.6
X5.7244Y-3.7
X5.7244Y-3.8
X5.7244Y-6.25
X5.8246Y-4.6461
X5.8246Y-4.9461
X5.8744Y-1.9
X5.8744Y-2.
X5.8744Y-2.1
X5.8744Y-2.2
X5.8744Y-2.3
X5.8744Y-2.4
X5.8744Y-2.5
X5.8744Y-2.6
X5.8744Y-2.7
X5.8744Y-3.5
X5.8744Y-3.6
X5.8744Y-3.7
X5.8744Y-3.8
X5.8776Y-2.9
X5.9244Y-3.1
X5.9246Y-4.6461
X5.9246Y-4.9461
X5.9744Y-0.8
X5.9744Y-0.9969
X5.9744Y-1.9
X5.9744Y-2.
X5.9744Y-2.1
X5.9744Y-2.2
X5.9744Y-2.3
X5.9744Y-2.4
X5.9744Y-2.5
X5.9744Y-2.6
X5.9744Y-3.5
X5.9744Y-3.6
X5.9744Y-3.7
X5.9744Y-3.8
X5.9744Y-5.65
X6.0244Y-3.1
X6.0713Y-2.7
X6.0744Y-2.9
X6.0744Y-5.65
X6.2244Y-0.8
X6.2244Y-0.9
X6.2244Y-1.
X6.2244Y-1.1
X6.2244Y-1.2
X6.2244Y-1.3
X6.2244Y-1.4
X6.2244Y-1.5
X6.2244Y-1.75
X6.2244Y-1.85
X6.2244Y-1.95
X6.2244Y-2.05
X6.2244Y-2.15
X6.2244Y-2.25
X6.2244Y-2.35
X6.2244Y-2.45
X6.2244Y-2.7
X6.2244Y-2.8
X6.2244Y-2.9
X6.2244Y-3.
X6.2244Y-3.1
X6.2244Y-3.2
X6.2244Y-3.3
X6.2244Y-3.4
X6.2244Y-3.65
X6.2244Y-3.75
X6.2244Y-3.85
X6.2244Y-3.95
X6.2244Y-4.05
X6.2244Y-4.15
X6.2244Y-4.25
X6.2244Y-4.35
X6.2244Y-4.6
X6.2244Y-4.7
X6.2244Y-4.8
X6.2244Y-4.9
X6.2244Y-5.
X6.2244Y-5.1
X6.2244Y-5.2
X6.2244Y-5.3
X6.2244Y-5.55
X6.2244Y-5.65
X6.2244Y-5.75
X6.2244Y-5.85
X6.2244Y-5.95
X6.2244Y-6.05
X6.2244Y-6.15
X6.2244Y-6.25
X6.2744Y-2.575
X6.2744Y-5.425
X6.2744Y-6.375
X6.2776Y-1.625
X6.2776Y-3.525
X6.2776Y-4.475
X6.4713Y-2.575
X6.4713Y-5.425
X6.4713Y-6.375
X6.4744Y-1.625
X6.4744Y-3.525
X6.4744Y-4.475
X6.5244Y-0.8
X6.5244Y-0.9
X6.5244Y-1.
X6.5244Y-1.1
X6.5244Y-1.2
X6.5244Y-1.3
X6.5244Y-1.4
X6.5244Y-1.5
X6.5244Y-1.75
X6.5244Y-1.85
X6.5244Y-1.95
X6.5244Y-2.05
X6.5244Y-2.15
X6.5244Y-2.25
X6.5244Y-2.35
X6.5244Y-2.45
X6.5244Y-2.7
X6.5244Y-2.8
X6.5244Y-2.9
X6.5244Y-3.
X6.5244Y-3.1
X6.5244Y-3.2
X6.5244Y-3.3
X6.5244Y-3.4
X6.5244Y-3.65
X6.5244Y-3.75
X6.5244Y-3.85
X6.5244Y-3.95
X6.5244Y-4.05
X6.5244Y-4.15
X6.5244Y-4.25
X6.5244Y-4.35
X6.5244Y-4.6
X6.5244Y-4.7
X6.5244Y-4.8
X6.5244Y-4.9
X6.5244Y-5.
X6.5244Y-5.1
X6.5244Y-5.2
X6.5244Y-5.3
X6.5244Y-5.55
X6.5244Y-5.65
X6.5244Y-5.75
X6.5244Y-5.85
X6.5244Y-5.95
X6.5244Y-6.05
X6.5244Y-6.15
X6.5244Y-6.25
X6.6744Y-0.9
X6.6744Y-1.
X6.6744Y-1.1
X6.6744Y-1.2
X6.6744Y-1.3
X6.6744Y-1.4
X6.6744Y-1.5
X6.6744Y-1.6
X6.6744Y-1.85
X6.6744Y-1.95
X6.6744Y-2.05
X6.6744Y-2.15
X6.6744Y-2.25
X6.6744Y-2.35
X6.6744Y-2.45
X6.6744Y-2.55
X6.6744Y-2.8
X6.6744Y-2.9
X6.6744Y-3.
X6.6744Y-3.1
X6.6744Y-3.2
X6.6744Y-3.3
X6.6744Y-3.4
X6.6744Y-3.5
X6.6744Y-3.75
X6.6744Y-3.85
X6.6744Y-3.95
X6.6744Y-4.05
X6.6744Y-4.15
X6.6744Y-4.25
X6.6744Y-4.35
X6.6744Y-4.45
X6.6744Y-4.7
X6.6744Y-4.8
X6.6744Y-4.9
X6.6744Y-5.
X6.6744Y-5.1
X6.6744Y-5.2
X6.6744Y-5.3
X6.6744Y-5.4
X6.6744Y-5.65
X6.6744Y-5.75
X6.6744Y-5.85
X6.6744Y-5.95
X6.6744Y-6.05
X6.6744Y-6.15
X6.6744Y-6.25
X6.6744Y-6.35
X6.7744Y-0.9
X6.7744Y-1.
X6.7744Y-1.1
X6.7744Y-1.2
X6.7744Y-1.3
X6.7744Y-1.4
X6.7744Y-1.5
X6.7744Y-1.6
X6.7744Y-1.85
X6.7744Y-1.95
X6.7744Y-2.05
X6.7744Y-2.15
X6.7744Y-2.25
X6.7744Y-2.35
X6.7744Y-2.45
X6.7744Y-2.55
X6.7744Y-2.8
X6.7744Y-2.9
X6.7744Y-3.
X6.7744Y-3.1
X6.7744Y-3.2
X6.7744Y-3.3
X6.7744Y-3.4
X6.7744Y-3.5
X6.7744Y-3.75
X6.7744Y-3.85
X6.7744Y-3.95
X6.7744Y-4.05
X6.7744Y-4.15
X6.7744Y-4.25
X6.7744Y-4.35
X6.7744Y-4.45
X6.7744Y-4.7
X6.7744Y-4.8
X6.7744Y-4.9
X6.7744Y-5.
X6.7744Y-5.1
X6.7744Y-5.2
X6.7744Y-5.3
X6.7744Y-5.4
X6.7744Y-5.65
X6.7744Y-5.75
X6.7744Y-5.85
X6.7744Y-5.95
X6.7744Y-6.05
X6.7744Y-6.15
X6.7744Y-6.25
X6.7744Y-6.35
T3
X0.9244Y-1.55
X0.9244Y-1.65
X0.9244Y-1.75
X0.9244Y-1.85
X0.9244Y-1.95
X0.9244Y-2.05
X0.9244Y-2.15
X0.9244Y-2.25
X0.9244Y-2.55
X0.9244Y-2.65
X0.9244Y-2.75
X0.9244Y-2.85
X0.9244Y-2.95
X0.9244Y-3.05
X0.9244Y-3.15
X0.9244Y-3.25
X0.9244Y-3.55
X0.9244Y-3.65
X0.9244Y-3.75
X0.9244Y-3.85
X0.9244Y-3.95
X0.9244Y-4.05
X0.9244Y-4.15
X0.9244Y-4.25
X0.9244Y-4.55
X0.9244Y-4.65
X0.9244Y-4.75
X0.9244Y-4.85
X0.9244Y-4.95
X0.9244Y-5.05
X0.9244Y-5.15
X0.9244Y-5.25
X0.9244Y-5.55
X0.9244Y-5.65
X0.9244Y-5.75
X0.9244Y-5.85
X0.9244Y-5.95
X0.9244Y-6.05
X0.9244Y-6.15
X0.9244Y-6.25
X3.2283Y-4.6516
X3.2283Y-4.8484
X3.2283Y-5.3516
X3.2283Y-5.5484
X3.2283Y-6.0516
X3.2283Y-6.2484
X3.7205Y-4.6516
X3.7205Y-4.8484
X3.7205Y-5.3516
X3.7205Y-5.5484
X3.7205Y-6.0516
X3.7205Y-6.2484
X3.8323Y-0.85
X3.8323Y-1.0469
X3.8744Y-1.5
X3.8744Y-1.6
X3.8744Y-1.7
X3.8744Y-1.95
X3.8744Y-2.05
X3.8744Y-2.3
X3.8744Y-2.4
X3.8744Y-2.5
X3.8744Y-3.55
X3.8744Y-3.65
X3.8744Y-3.75
X3.8744Y-3.85
X3.8744Y-3.95
X3.8744Y-4.05
X3.8744Y-4.3
X3.8744Y-4.4
X3.9744Y-1.5
X3.9744Y-1.6
X3.9744Y-1.7
X3.9744Y-1.95
X3.9744Y-2.05
X3.9744Y-2.3
X3.9744Y-2.4
X3.9744Y-2.5
X3.9744Y-3.55
X3.9744Y-3.65
X3.9744Y-3.75
X3.9744Y-3.85
X3.9744Y-3.95
X3.9744Y-4.05
X3.9744Y-4.3
X3.9744Y-4.4
X4.3244Y-0.85
X4.3244Y-1.0469
X7.1244Y-0.8
X7.1244Y-0.9
X7.1244Y-1.
X7.1244Y-1.1
X7.1244Y-1.2
X7.1244Y-1.3
X7.1244Y-1.4
X7.1244Y-1.5
X7.1244Y-1.75
X7.1244Y-1.85
X7.1244Y-1.95
X7.1244Y-2.05
X7.1244Y-2.15
X7.1244Y-2.25
X7.1244Y-2.35
X7.1244Y-2.45
X7.1244Y-2.7
X7.1244Y-2.8
X7.1244Y-2.9
X7.1244Y-3.
X7.1244Y-3.1
X7.1244Y-3.2
X7.1244Y-3.3
X7.1244Y-3.4
X7.1244Y-3.65
X7.1244Y-3.75
X7.1244Y-3.85
X7.1244Y-3.95
X7.1244Y-4.05
X7.1244Y-4.15
X7.1244Y-4.25
X7.1244Y-4.35
X7.1244Y-4.6
X7.1244Y-4.7
X7.1244Y-4.8
X7.1244Y-4.9
X7.1244Y-5.
X7.1244Y-5.1
X7.1244Y-5.2
X7.1244Y-5.3
X7.1244Y-5.55
X7.1244Y-5.65
X7.1244Y-5.75
X7.1244Y-5.85
X7.1244Y-5.95
X7.1244Y-6.05
X7.1244Y-6.15
X7.1244Y-6.25
T4
X0.9744Y-1.15
X0.9744Y-1.25
X4.6744Y-0.85
X4.6744Y-0.95
T5
X5.2244Y-0.85
X5.2244Y-0.95
X5.3244Y-0.85
X5.3244Y-0.95
X5.4244Y-0.85
X5.4244Y-0.95
X5.5244Y-0.85
X5.5244Y-0.95
X5.6244Y-0.85
X5.6244Y-0.95
T6
X1.8945Y-0.8
X2.0913Y-0.8
X2.5244Y-0.8
X2.7213Y-0.8
T7
X0.9244Y-0.85
X1.1244Y-0.85
X1.3244Y-0.85
X1.5244Y-0.85
T0
M30
